<?xml version="1.0" encoding="UTF-8"?>
<svg version="1.1" xmlns="http://www.w3.org/2000/svg" width="624" height="468">
<path d="M0 0 C1.2065625 0.0309375 1.2065625 0.0309375 2.4375 0.0625 C2.7675 1.0525 3.0975 2.0425 3.4375 3.0625 C4.18 3.041875 4.9225 3.02125 5.6875 3 C8.16099654 3.05621583 10.06956199 3.43104986 12.4375 4.0625 C13.4275 4.0625 14.4175 4.0625 15.4375 4.0625 C15.1075 2.7425 14.7775 1.4225 14.4375 0.0625 C23.84752278 1.02605353 23.84752278 1.02605353 28.4375 2.0625 C28.4375 3.3825 28.4375 4.7025 28.4375 6.0625 C28.994375 5.83433594 29.55125 5.60617188 30.125 5.37109375 C35.77272653 3.24365622 39.51949896 2.87889979 45.4375 4.0625 C45.4375 8.0625 45.4375 8.0625 43.125 10.75 C40.4375 13.0625 40.4375 13.0625 37.4375 14.0625 C37.4375 14.7225 37.4375 15.3825 37.4375 16.0625 C38.4275 16.3925 39.4175 16.7225 40.4375 17.0625 C40.28152344 18.26648438 40.12554687 19.47046875 39.96484375 20.7109375 C39.76790865 22.2864183 39.57131156 23.86194138 39.375 25.4375 C39.27123047 26.2315625 39.16746094 27.025625 39.06054688 27.84375 C38.35788106 32.06419742 38.35788106 32.06419742 39.4375 36.0625 C39.50700541 37.60273996 39.52202357 39.14584988 39.5 40.6875 C39.49097656 41.50476563 39.48195313 42.32203125 39.47265625 43.1640625 C39.45525391 44.10378906 39.45525391 44.10378906 39.4375 45.0625 C40.0975 45.3925 40.7575 45.7225 41.4375 46.0625 C40.84091013 48.54829113 40.16424621 50.98473153 39.4375 53.4375 C38.3566992 56.9533331 38.3566992 56.9533331 38.125 60.25 C36.97255269 64.96455718 33.29333867 66.49194089 29.4375 69.0625 C29.128125 69.701875 28.81875 70.34125 28.5 71 C27.4375 73.0625 27.4375 73.0625 25.3125 74.375 C23.08734058 76.01145691 23.08734058 76.01145691 23 79.3125 C23.47731948 83.40380987 24.74033545 86.328738 26.4375 90.0625 C26.5303125 91.6403125 26.5303125 91.6403125 26.625 93.25 C27.11872002 96.13027011 27.11872002 96.13027011 29.16796875 97.1484375 C30.6075876 97.80400164 32.05172281 98.44973002 33.5 99.0859375 C36.40403497 100.5496648 37.23939152 102.0672288 38.4375 105.0625 C38.51484375 106.05443359 38.51484375 106.05443359 38.59375 107.06640625 C38.85834413 109.78322102 39.21135398 111.59818691 40.4375 114.0625 C43.12318063 116.22457977 45.76251316 118.07066597 48.73974609 119.79199219 C53.76098699 122.78970562 54.52764351 125.46152235 55.91522217 130.95320129 C56.42565026 133.08036607 56.90814489 135.21223262 57.3828125 137.34765625 C57.55755096 138.12636581 57.73228943 138.90507538 57.912323 139.7073822 C58.27862858 141.34500353 58.64327586 142.98299658 59.00634766 144.62133789 C59.56184161 147.12203607 60.1263537 149.62058725 60.69140625 152.11914062 C61.04742576 153.71602314 61.40291272 155.3130245 61.7578125 156.91015625 C61.92652863 157.65298355 62.09524475 158.39581085 62.26907349 159.16114807 C63.91002575 166.64477413 63.91002575 166.64477413 63.4375 170.0625 C61.9525 171.0525 61.9525 171.0525 60.4375 172.0625 C60.82421875 172.54976562 61.2109375 173.03703125 61.609375 173.5390625 C70.01341778 184.98020984 70.90226457 196.42327838 70.46630859 210.15478516 C70.43875488 211.10530762 70.41120117 212.05583008 70.3828125 213.03515625 C70.34687988 213.88343994 70.31094727 214.73172363 70.27392578 215.60571289 C70.46136301 218.4209082 71.36583685 220.46975798 72.4375 223.0625 C72.17710108 226.18728705 71.62733932 228.62698628 70.375 231.5 C68.85997495 235.64106846 68.79483339 239.45583346 70.4375 243.5625 C72.13772851 247.81307127 71.86738741 251.77283777 70.4375 256.0625 C65.21527778 259.0625 65.21527778 259.0625 62.4375 259.0625 C62.79903021 265.01268472 64.7368175 268.23871148 68.4375 272.6875 C73.53697774 279.21859706 74.91141161 284.67147679 74.4375 293.0625 C75.4275 293.3925 76.4175 293.7225 77.4375 294.0625 C79.125 296.625 79.125 296.625 80.4375 299.0625 C81.5821875 298.85753906 82.726875 298.65257812 83.90625 298.44140625 C91.35915834 297.53767551 99.28000932 299.7547583 105.4375 304.0625 C109.45334679 308.64865194 111.77370477 314.25770332 113.4375 320.0625 C113.29638672 322.08447266 113.29638672 322.08447266 112.4375 324.0625 C110.42578125 325.73144531 110.42578125 325.73144531 107.75 327.390625 C106.75371582 328.01743164 105.75743164 328.64423828 104.73095703 329.29003906 C103.64411621 329.95745117 102.55727539 330.62486328 101.4375 331.3125 C100.3063389 332.01924496 99.17597897 332.72727368 98.04638672 333.43652344 C95.69250087 334.91315464 93.33522986 336.38415203 90.97558594 337.8515625 C85.46926231 341.28317599 80.01984183 344.80375447 74.5625 348.3125 C67.30627949 352.96083228 60.03804268 357.58923918 52.75 362.1875 C52.00105469 362.66219727 51.25210937 363.13689453 50.48046875 363.62597656 C46.28464038 366.28249632 42.06973657 368.90291994 37.83203125 371.4921875 C26.96057352 378.18860837 17.46510784 385.0484268 8.4375 394.0625 C6.47270007 395.82255844 4.48349045 397.53503231 2.453125 399.21875 C0.30375661 401.10027487 0.30375661 401.10027487 -1.765625 403.71875 C-10.87793559 413.86779054 -22.16580373 415.18942753 -35.18505859 417.46142578 C-38.3222841 418.01974942 -41.43458296 418.6439519 -44.55078125 419.30859375 C-62.79382264 423.17955938 -62.79382264 423.17955938 -66.9375 420.5625 C-67.741875 419.82 -67.741875 419.82 -68.5625 419.0625 C-68.0365625 417.2990625 -68.0365625 417.2990625 -67.5 415.5 C-66.43338402 411.31558347 -66.68727305 408.26358938 -67.5625 404.0625 C-71.53737272 402.5283386 -75.29112895 401.12815429 -79.4375 400.125 C-82.5625 399.0625 -82.5625 399.0625 -83.7578125 396.99609375 C-84.02335938 396.35800781 -84.28890625 395.71992188 -84.5625 395.0625 C-85.15417969 395.12050781 -85.74585938 395.17851562 -86.35546875 395.23828125 C-92.88076602 395.61085124 -92.88076602 395.61085124 -96.4375 392.75 C-97.13875 391.863125 -97.84 390.97625 -98.5625 390.0625 C-100.74487049 387.71225486 -101.40418378 387.11527207 -104.5625 386.0625 C-104.5625 385.4025 -104.5625 384.7425 -104.5625 384.0625 C-105.8825 384.0625 -107.2025 384.0625 -108.5625 384.0625 C-108.2325 381.4225 -107.9025 378.7825 -107.5625 376.0625 C-108.07425781 375.83304687 -108.58601562 375.60359375 -109.11328125 375.3671875 C-112.50099397 373.5625686 -115.6031809 371.37511396 -118.75 369.1875 C-119.4519751 368.7020874 -120.1539502 368.2166748 -120.87719727 367.71655273 C-128.09321561 362.7161682 -135.26255728 357.64980003 -142.42578125 352.57421875 C-144.54178005 351.07715927 -146.66092052 349.58466813 -148.78125 348.09375 C-156.83970238 342.42492326 -164.85341503 336.69920654 -172.83178711 330.91821289 C-178.58037232 326.75801172 -184.36964751 322.65872342 -190.17456055 318.57763672 C-195.2715562 314.9885341 -200.32869779 311.34743126 -205.375 307.6875 C-208.43476774 305.47535957 -211.49746447 303.26733547 -214.5625 301.0625 C-215.63999512 300.28712891 -215.63999512 300.28712891 -216.73925781 299.49609375 C-226.49975813 292.50114157 -236.43033324 285.78081435 -246.47558594 279.20361328 C-249.43465874 277.26522652 -252.37860314 275.30636076 -255.31347656 273.33154297 C-262.63848484 268.42969965 -269.97739263 263.7584008 -277.72296143 259.54324341 C-307.16267577 243.4692022 -307.16267577 243.4692022 -310.35253906 233.56152344 C-312.47598933 224.05653813 -312.1882093 212.13868872 -308.5625 203.0625 C-305.66650391 200.78930664 -305.66650391 200.78930664 -302.5625 199.0625 C-301.34441141 198.15660866 -300.13561353 197.23793006 -298.94140625 196.30078125 C-298.00264648 195.58245117 -298.00264648 195.58245117 -297.04492188 194.84960938 C-295.76173635 193.86404979 -294.48566509 192.86915979 -293.21679688 191.86523438 C-288.97418415 188.65166235 -285.97706016 187.56571191 -280.5625 187.0625 C-279.5725 186.0725 -279.5725 186.0725 -278.5625 185.0625 C-276.4609375 184.9375 -276.4609375 184.9375 -273.9375 185.0625 C-269.92474251 185.15408933 -266.72931266 184.6420101 -262.85546875 183.5078125 C-257.84483051 182.53470729 -252.64429436 182.92306052 -247.5625 183.0625 C-247.5625 183.7225 -247.5625 184.3825 -247.5625 185.0625 C-244.010115 183.63547355 -242.70967717 182.09350052 -240.8125 178.8125 C-237.76333738 174.01103379 -234.30775036 171.11511467 -229.5625 168.0625 C-228.139375 167.134375 -228.139375 167.134375 -226.6875 166.1875 C-224.5625 165.0625 -224.5625 165.0625 -222.5625 165.0625 C-222.3665625 164.44117188 -222.170625 163.81984375 -221.96875 163.1796875 C-219.44660105 159.38245214 -214.77066738 159.34887442 -210.53125 158.3828125 C-207.29037436 157.32240229 -207.29037436 157.32240229 -206.09375 154.0546875 C-205.27083912 151.14858526 -205.27083912 151.14858526 -206.5625 149.0625 C-207.5525 148.7325 -208.5425 148.4025 -209.5625 148.0625 C-209.5625 145.7525 -209.5625 143.4425 -209.5625 141.0625 C-208.5725 141.0625 -207.5825 141.0625 -206.5625 141.0625 C-206.5625 138.7525 -206.5625 136.4425 -206.5625 134.0625 C-198.6425 132.0825 -198.6425 132.0825 -190.5625 130.0625 C-190.8925 128.4125 -191.2225 126.7625 -191.5625 125.0625 C-186.16923836 122.8219496 -181.35741745 122.79450042 -175.625 122.875 C-174.75681641 122.87564453 -173.88863281 122.87628906 -172.99414062 122.87695312 C-168.08495822 122.91034892 -163.40244612 123.23937991 -158.5625 124.0625 C-158.2325 121.7525 -157.9025 119.4425 -157.5625 117.0625 C-156.2425 116.7325 -154.9225 116.4025 -153.5625 116.0625 C-154.67625 114.94875 -154.67625 114.94875 -155.8125 113.8125 C-156.72 112.905 -157.6275 111.9975 -158.5625 111.0625 C-159.284375 110.44375 -160.00625 109.825 -160.75 109.1875 C-163.15217834 106.37115298 -163.70488608 103.62489626 -164.5625 100.0625 C-164.8925 99.4025 -165.2225 98.7425 -165.5625 98.0625 C-165.59302942 95.5590879 -165.49568882 93.07196037 -165.40234375 90.5703125 C-165.39817648 88.05429652 -165.39817648 88.05429652 -166.59765625 86.01171875 C-167.79868945 83.58533993 -167.54855505 82.3812403 -167.0625 79.75 C-166.4436564 75.35333212 -167.14851047 72.30446858 -168.5625 68.0625 C-169.75527108 61.44804217 -169.75527108 61.44804217 -168.5625 59.0625 C-169.14 58.794375 -169.7175 58.52625 -170.3125 58.25 C-172.65884823 57.01164955 -174.61457752 55.87128516 -176.5625 54.0625 C-176.5625 52.7425 -176.5625 51.4225 -176.5625 50.0625 C-175.428125 50.000625 -174.29375 49.93875 -173.125 49.875 C-168.57925577 49.34020656 -165.30378762 47.49398873 -161.4453125 45.12109375 C-159.5625 44.0625 -159.5625 44.0625 -157.5625 44.0625 C-157.52125 43.340625 -157.48 42.61875 -157.4375 41.875 C-156.24082595 38.02854771 -153.97454575 36.01115724 -150.5625 34.0625 C-147.45635881 33.38950274 -144.72493471 33.0625 -141.5625 33.0625 C-141.5625 32.0725 -141.5625 31.0825 -141.5625 30.0625 C-139.9125 30.0625 -138.2625 30.0625 -136.5625 30.0625 C-136.5625 30.7225 -136.5625 31.3825 -136.5625 32.0625 C-134.14664426 32.03156827 -134.14664426 32.03156827 -131.5625 31.0625 C-130.52958324 29.07929982 -129.5287501 27.07902194 -128.5625 25.0625 C-126.375 24.1875 -126.375 24.1875 -124.5625 24.0625 C-124.5625 23.4025 -124.5625 22.7425 -124.5625 22.0625 C-113.51507378 15.07409347 -102.888225 13.49167969 -90.01928711 12.34033203 C-87.51841279 12.10298793 -87.51841279 12.10298793 -84.93579102 11.46826172 C-82.5625 11.0625 -82.5625 11.0625 -79.5625 12.0625 C-76.80010649 10.64761552 -74.75886905 9.25886905 -72.5625 7.0625 C-70.55703311 7.36118656 -68.55672795 7.69621323 -66.5625 8.0625 C-65.5725 7.7325 -64.5825 7.4025 -63.5625 7.0625 C-61.22950175 7.02295766 -58.89541811 7.01848268 -56.5625 7.0625 C-56.5625 6.4025 -56.5625 5.7425 -56.5625 5.0625 C-47.69237733 3.14463564 -38.26132445 3.43337768 -29.5625 6.0625 C-28.5725 6.7225 -27.5825 7.3825 -26.5625 8.0625 C-26.5625 8.7225 -26.5625 9.3825 -26.5625 10.0625 C-23.18785976 10.3128577 -23.18785976 10.3128577 -19.5625 10.0625 C-18.55844873 9.06656775 -17.55872883 8.066257 -16.5625 7.0625 C-14.40625 6.33203125 -14.40625 6.33203125 -12.0625 5.875 C-10.90234375 5.63716797 -10.90234375 5.63716797 -9.71875 5.39453125 C-7.5625 5.0625 -7.5625 5.0625 -4.5625 5.0625 C-4.418125 4.423125 -4.27375 3.78375 -4.125 3.125 C-3.30589691 0.12162199 -3.19313651 0.07788138 0 0 Z " fill="#828282" transform="translate(409.5625,22.9375)"/>
<path d="M0 0 C1.2065625 0.0309375 1.2065625 0.0309375 2.4375 0.0625 C2.7675 1.0525 3.0975 2.0425 3.4375 3.0625 C4.18 3.041875 4.9225 3.02125 5.6875 3 C8.16099654 3.05621583 10.06956199 3.43104986 12.4375 4.0625 C13.4275 4.0625 14.4175 4.0625 15.4375 4.0625 C15.1075 2.7425 14.7775 1.4225 14.4375 0.0625 C23.84752278 1.02605353 23.84752278 1.02605353 28.4375 2.0625 C28.4375 3.3825 28.4375 4.7025 28.4375 6.0625 C28.994375 5.83433594 29.55125 5.60617188 30.125 5.37109375 C35.77272653 3.24365622 39.51949896 2.87889979 45.4375 4.0625 C45.4375 5.3825 45.4375 6.7025 45.4375 8.0625 C44.4475 7.5675 44.4475 7.5675 43.4375 7.0625 C43.7675 6.4025 44.0975 5.7425 44.4375 5.0625 C41.10218965 5.37791164 37.76949282 5.71380308 34.4375 6.0625 C33.715625 6.1346875 32.99375 6.206875 32.25 6.28125 C30.6357816 6.46957548 29.03366613 6.75685117 27.4375 7.0625 C27.1075 7.7225 26.7775 8.3825 26.4375 9.0625 C26.4375 7.7425 26.4375 6.4225 26.4375 5.0625 C21.9825 3.0825 21.9825 3.0825 17.4375 1.0625 C18.118125 2.50625 18.79875 3.95 19.5 5.4375 C20.66015625 7.8984375 20.66015625 7.8984375 21.4375 10.0625 C20.16280598 12.61188804 18.94590774 12.80829613 16.4375 14.0625 C14.32981398 15.75072025 13.52877259 16.6590891 12.92578125 19.32421875 C12.86777344 20.12472656 12.80976563 20.92523438 12.75 21.75 C12.65138672 22.96236328 12.65138672 22.96236328 12.55078125 24.19921875 C12.51339844 24.81410156 12.47601563 25.42898437 12.4375 26.0625 C11.1175 26.0625 9.7975 26.0625 8.4375 26.0625 C8.4375 25.4025 8.4375 24.7425 8.4375 24.0625 C7.48875 24.413125 6.54 24.76375 5.5625 25.125 C2.4375 26.0625 2.4375 26.0625 0.4375 25.0625 C-0.56467064 28.64577753 -0.56467064 28.64577753 0.4375 32.0625 C-1.52075873 32.08944851 -3.47912226 32.10887218 -5.4375 32.125 C-7.07332031 32.14240234 -7.07332031 32.14240234 -8.7421875 32.16015625 C-11.5625 32.0625 -11.5625 32.0625 -13.5625 31.0625 C-13.5625 32.0525 -13.5625 33.0425 -13.5625 34.0625 C-14.119375 34.124375 -14.67625 34.18625 -15.25 34.25 C-17.80966109 34.95176567 -17.80966109 34.95176567 -19.875 37.5 C-22.5625 40.0625 -22.5625 40.0625 -26.25 41 C-27.343125 41.350625 -28.43625 41.70125 -29.5625 42.0625 C-31.09396378 45.06844421 -31.09396378 45.06844421 -31.5625 48.0625 C-30.655 48.51625 -29.7475 48.97 -28.8125 49.4375 C-26.39583333 50.64583333 -23.97916667 51.85416667 -21.5625 53.0625 C-22.325625 52.959375 -23.08875 52.85625 -23.875 52.75 C-25.2053125 52.9046875 -25.2053125 52.9046875 -26.5625 53.0625 C-27.1503125 54.238125 -27.1503125 54.238125 -27.75 55.4375 C-29.5625 58.0625 -29.5625 58.0625 -31.828125 58.76953125 C-33.57599233 59.08384073 -35.33043632 59.36398146 -37.08984375 59.60546875 C-39.57378999 60.06458678 -41.37349338 60.82832689 -43.5625 62.0625 C-43.67570856 67.14553686 -43.67570856 67.14553686 -42.5625 72.0625 C-42.5625 72.7225 -42.5625 73.3825 -42.5625 74.0625 C-41.63013438 77.81060978 -40.6890014 78.96933123 -37.5234375 81.30078125 C-36.33644797 82.00638058 -35.14076174 82.6975225 -33.9375 83.375 C-33.32648438 83.73400391 -32.71546875 84.09300781 -32.0859375 84.46289062 C-30.58546418 85.34207421 -29.07492485 86.20403914 -27.5625 87.0625 C-26.5725 86.4025 -25.5825 85.7425 -24.5625 85.0625 C-25.2225 86.7125 -25.8825 88.3625 -26.5625 90.0625 C-25.9025 90.7225 -25.2425 91.3825 -24.5625 92.0625 C-25.8825 92.0625 -27.2025 92.0625 -28.5625 92.0625 C-28.53929687 93.04992187 -28.51609375 94.03734375 -28.4921875 95.0546875 C-28.47414063 96.33601563 -28.45609375 97.61734375 -28.4375 98.9375 C-28.41429687 100.21367188 -28.39109375 101.48984375 -28.3671875 102.8046875 C-28.5625 106.0625 -28.5625 106.0625 -30.5625 108.0625 C-30.5625 107.4025 -30.5625 106.7425 -30.5625 106.0625 C-31.531875 105.93875 -32.50125 105.815 -33.5 105.6875 C-36.38314396 105.29302558 -39.12274717 104.66963255 -41.9375 103.9375 C-48.8102204 102.3685996 -55.03453795 103.55174536 -61.5625 106.0625 C-61.5625 106.7225 -61.5625 107.3825 -61.5625 108.0625 C-62.1915625 108.03929687 -62.820625 108.01609375 -63.46875 107.9921875 C-69.26270592 107.87002578 -73.99029856 108.52534098 -79.5625 110.0625 C-80.8825 110.0625 -82.2025 110.0625 -83.5625 110.0625 C-83.46710938 111.11050781 -83.37171875 112.15851563 -83.2734375 113.23828125 C-83.16087758 114.61714022 -83.04893036 115.99604929 -82.9375 117.375 C-82.87304688 118.06529297 -82.80859375 118.75558594 -82.7421875 119.46679688 C-82.44447153 123.3184972 -82.35486277 124.75104416 -84.5625 128.0625 C-84.72963569 130.68781524 -84.72963569 130.68781524 -84.5625 133.0625 C-85.5525 133.3925 -86.5425 133.7225 -87.5625 134.0625 C-87.60008423 135.18893921 -87.60008423 135.18893921 -87.63842773 136.33813477 C-87.75504942 139.76723533 -87.87747417 143.19610553 -88 146.625 C-88.03931641 147.80642578 -88.07863281 148.98785156 -88.11914062 150.20507812 C-88.32673764 155.90601159 -88.67408737 161.43099184 -89.5625 167.0625 C-90.03571871 176.72172897 -89.18404665 186.42852691 -88.5625 196.0625 C-78.1675 194.5775 -78.1675 194.5775 -67.5625 193.0625 C-69.5625 196.0625 -69.5625 196.0625 -71.62548828 196.49487305 C-72.45290527 196.52105713 -73.28032227 196.54724121 -74.1328125 196.57421875 C-75.02871094 196.60966797 -75.92460937 196.64511719 -76.84765625 196.68164062 C-77.78480469 196.70419922 -78.72195313 196.72675781 -79.6875 196.75 C-80.63238281 196.78416016 -81.57726562 196.81832031 -82.55078125 196.85351562 C-84.88790253 196.93614112 -87.22464191 197.00523988 -89.5625 197.0625 C-91.29325242 185.44173375 -92.86673037 173.4898347 -91.0546875 161.78125 C-90.40578156 156.87840514 -90.4561162 152.06361547 -90.5 147.125 C-90.50451172 146.15498047 -90.50902344 145.18496094 -90.51367188 144.18554688 C-90.5253685 141.8111324 -90.54175914 139.43684979 -90.5625 137.0625 C-93.73944958 138.56247405 -96.90174349 140.09123403 -100.0625 141.625 C-101.3928125 142.25245117 -101.3928125 142.25245117 -102.75 142.89257812 C-112.77829461 147.79611924 -120.00337347 154.33402857 -125.5625 164.0625 C-125.8925 163.4025 -126.2225 162.7425 -126.5625 162.0625 C-125.625 159.4375 -125.625 159.4375 -124.5625 157.0625 C-125.2225 156.7325 -125.8825 156.4025 -126.5625 156.0625 C-126.5625 155.4025 -126.5625 154.7425 -126.5625 154.0625 C-127.119375 153.835625 -127.67625 153.60875 -128.25 153.375 C-131.21503447 151.6921426 -133.21603689 149.52628626 -135.5625 147.0625 C-136.34625 146.464375 -137.13 145.86625 -137.9375 145.25 C-139.5625 143.0625 -139.5625 143.0625 -139.625 139.75 C-138.42139597 133.02774348 -135.79658542 126.47833505 -133.5625 120.0625 C-138.8425 121.7125 -144.1225 123.3625 -149.5625 125.0625 C-150.2225 123.7425 -150.8825 122.4225 -151.5625 121.0625 C-152.8825 121.0625 -154.2025 121.0625 -155.5625 121.0625 C-155.5625 122.3825 -155.5625 123.7025 -155.5625 125.0625 C-157.5425 125.0625 -159.5225 125.0625 -161.5625 125.0625 C-160.0775 124.5675 -160.0775 124.5675 -158.5625 124.0625 C-158.2325 121.7525 -157.9025 119.4425 -157.5625 117.0625 C-155.5825 116.5675 -155.5825 116.5675 -153.5625 116.0625 C-154.305 115.32 -155.0475 114.5775 -155.8125 113.8125 C-157.17375 112.45125 -157.17375 112.45125 -158.5625 111.0625 C-159.284375 110.44375 -160.00625 109.825 -160.75 109.1875 C-163.15217834 106.37115298 -163.70488608 103.62489626 -164.5625 100.0625 C-164.8925 99.4025 -165.2225 98.7425 -165.5625 98.0625 C-165.59302942 95.5590879 -165.49568882 93.07196037 -165.40234375 90.5703125 C-165.39817648 88.05429652 -165.39817648 88.05429652 -166.59765625 86.01171875 C-167.79868945 83.58533993 -167.54855505 82.3812403 -167.0625 79.75 C-166.4436564 75.35333212 -167.14851047 72.30446858 -168.5625 68.0625 C-169.75527108 61.44804217 -169.75527108 61.44804217 -168.5625 59.0625 C-169.14 58.794375 -169.7175 58.52625 -170.3125 58.25 C-172.65884823 57.01164955 -174.61457752 55.87128516 -176.5625 54.0625 C-176.5625 52.7425 -176.5625 51.4225 -176.5625 50.0625 C-175.428125 50.000625 -174.29375 49.93875 -173.125 49.875 C-168.57925577 49.34020656 -165.30378762 47.49398873 -161.4453125 45.12109375 C-159.5625 44.0625 -159.5625 44.0625 -157.5625 44.0625 C-157.52125 43.340625 -157.48 42.61875 -157.4375 41.875 C-156.24082595 38.02854771 -153.97454575 36.01115724 -150.5625 34.0625 C-147.45635881 33.38950274 -144.72493471 33.0625 -141.5625 33.0625 C-141.5625 32.0725 -141.5625 31.0825 -141.5625 30.0625 C-139.9125 30.0625 -138.2625 30.0625 -136.5625 30.0625 C-136.5625 30.7225 -136.5625 31.3825 -136.5625 32.0625 C-134.14664426 32.03156827 -134.14664426 32.03156827 -131.5625 31.0625 C-130.52958324 29.07929982 -129.5287501 27.07902194 -128.5625 25.0625 C-126.375 24.1875 -126.375 24.1875 -124.5625 24.0625 C-124.5625 23.4025 -124.5625 22.7425 -124.5625 22.0625 C-113.51507378 15.07409347 -102.888225 13.49167969 -90.01928711 12.34033203 C-87.51841279 12.10298793 -87.51841279 12.10298793 -84.93579102 11.46826172 C-82.5625 11.0625 -82.5625 11.0625 -79.5625 12.0625 C-76.80010649 10.64761552 -74.75886905 9.25886905 -72.5625 7.0625 C-70.55703311 7.36118656 -68.55672795 7.69621323 -66.5625 8.0625 C-65.5725 7.7325 -64.5825 7.4025 -63.5625 7.0625 C-61.22950175 7.02295766 -58.89541811 7.01848268 -56.5625 7.0625 C-56.5625 6.4025 -56.5625 5.7425 -56.5625 5.0625 C-47.69237733 3.14463564 -38.26132445 3.43337768 -29.5625 6.0625 C-28.5725 6.7225 -27.5825 7.3825 -26.5625 8.0625 C-26.5625 8.7225 -26.5625 9.3825 -26.5625 10.0625 C-23.18785976 10.3128577 -23.18785976 10.3128577 -19.5625 10.0625 C-18.55844873 9.06656775 -17.55872883 8.066257 -16.5625 7.0625 C-14.40625 6.33203125 -14.40625 6.33203125 -12.0625 5.875 C-10.90234375 5.63716797 -10.90234375 5.63716797 -9.71875 5.39453125 C-7.5625 5.0625 -7.5625 5.0625 -4.5625 5.0625 C-4.418125 4.423125 -4.27375 3.78375 -4.125 3.125 C-3.30589691 0.12162199 -3.19313651 0.07788138 0 0 Z " fill="#838383" transform="translate(409.5625,22.9375)"/>
<path d="M0 0 C1.2065625 0.0309375 1.2065625 0.0309375 2.4375 0.0625 C2.7675 1.0525 3.0975 2.0425 3.4375 3.0625 C4.18 3.041875 4.9225 3.02125 5.6875 3 C8.16099654 3.05621583 10.06956199 3.43104986 12.4375 4.0625 C13.4275 4.0625 14.4175 4.0625 15.4375 4.0625 C15.1075 2.7425 14.7775 1.4225 14.4375 0.0625 C23.84752278 1.02605353 23.84752278 1.02605353 28.4375 2.0625 C28.4375 3.3825 28.4375 4.7025 28.4375 6.0625 C28.994375 5.83433594 29.55125 5.60617188 30.125 5.37109375 C35.77272653 3.24365622 39.51949896 2.87889979 45.4375 4.0625 C45.4375 5.3825 45.4375 6.7025 45.4375 8.0625 C44.4475 7.5675 44.4475 7.5675 43.4375 7.0625 C43.7675 6.4025 44.0975 5.7425 44.4375 5.0625 C41.10218965 5.37791164 37.76949282 5.71380308 34.4375 6.0625 C33.715625 6.1346875 32.99375 6.206875 32.25 6.28125 C30.6357816 6.46957548 29.03366613 6.75685117 27.4375 7.0625 C27.1075 7.7225 26.7775 8.3825 26.4375 9.0625 C26.4375 7.7425 26.4375 6.4225 26.4375 5.0625 C21.9825 3.0825 21.9825 3.0825 17.4375 1.0625 C18.118125 2.50625 18.79875 3.95 19.5 5.4375 C20.66015625 7.8984375 20.66015625 7.8984375 21.4375 10.0625 C20.16280598 12.61188804 18.94590774 12.80829613 16.4375 14.0625 C14.32981398 15.75072025 13.52877259 16.6590891 12.92578125 19.32421875 C12.86777344 20.12472656 12.80976563 20.92523438 12.75 21.75 C12.65138672 22.96236328 12.65138672 22.96236328 12.55078125 24.19921875 C12.51339844 24.81410156 12.47601563 25.42898437 12.4375 26.0625 C11.1175 26.0625 9.7975 26.0625 8.4375 26.0625 C8.4375 25.4025 8.4375 24.7425 8.4375 24.0625 C7.48875 24.413125 6.54 24.76375 5.5625 25.125 C2.4375 26.0625 2.4375 26.0625 0.4375 25.0625 C-0.56467064 28.64577753 -0.56467064 28.64577753 0.4375 32.0625 C-1.52075873 32.08944851 -3.47912226 32.10887218 -5.4375 32.125 C-7.07332031 32.14240234 -7.07332031 32.14240234 -8.7421875 32.16015625 C-11.5625 32.0625 -11.5625 32.0625 -13.5625 31.0625 C-13.5625 32.0525 -13.5625 33.0425 -13.5625 34.0625 C-14.119375 34.124375 -14.67625 34.18625 -15.25 34.25 C-17.80966109 34.95176567 -17.80966109 34.95176567 -19.875 37.5 C-22.5625 40.0625 -22.5625 40.0625 -26.25 41 C-27.343125 41.350625 -28.43625 41.70125 -29.5625 42.0625 C-31.09396378 45.06844421 -31.09396378 45.06844421 -31.5625 48.0625 C-30.655 48.51625 -29.7475 48.97 -28.8125 49.4375 C-26.39583333 50.64583333 -23.97916667 51.85416667 -21.5625 53.0625 C-22.325625 52.959375 -23.08875 52.85625 -23.875 52.75 C-25.2053125 52.9046875 -25.2053125 52.9046875 -26.5625 53.0625 C-27.1503125 54.238125 -27.1503125 54.238125 -27.75 55.4375 C-29.5625 58.0625 -29.5625 58.0625 -31.828125 58.76953125 C-33.57599233 59.08384073 -35.33043632 59.36398146 -37.08984375 59.60546875 C-39.57378999 60.06458678 -41.37349338 60.82832689 -43.5625 62.0625 C-43.67570856 67.14553686 -43.67570856 67.14553686 -42.5625 72.0625 C-42.5625 72.7225 -42.5625 73.3825 -42.5625 74.0625 C-41.63013438 77.81060978 -40.6890014 78.96933123 -37.5234375 81.30078125 C-36.33644797 82.00638058 -35.14076174 82.6975225 -33.9375 83.375 C-33.32648438 83.73400391 -32.71546875 84.09300781 -32.0859375 84.46289062 C-30.58546418 85.34207421 -29.07492485 86.20403914 -27.5625 87.0625 C-26.5725 86.4025 -25.5825 85.7425 -24.5625 85.0625 C-25.2225 86.7125 -25.8825 88.3625 -26.5625 90.0625 C-25.9025 90.7225 -25.2425 91.3825 -24.5625 92.0625 C-25.8825 92.0625 -27.2025 92.0625 -28.5625 92.0625 C-28.53929687 93.04992187 -28.51609375 94.03734375 -28.4921875 95.0546875 C-28.47414063 96.33601563 -28.45609375 97.61734375 -28.4375 98.9375 C-28.41429687 100.21367188 -28.39109375 101.48984375 -28.3671875 102.8046875 C-28.5625 106.0625 -28.5625 106.0625 -30.5625 108.0625 C-30.5625 107.4025 -30.5625 106.7425 -30.5625 106.0625 C-31.531875 105.93875 -32.50125 105.815 -33.5 105.6875 C-36.38314396 105.29302558 -39.12274717 104.66963255 -41.9375 103.9375 C-48.8102204 102.3685996 -55.03453795 103.55174536 -61.5625 106.0625 C-59.1171615 103.09722242 -57.11647653 102.50667786 -53.375 101.875 C-52.47394531 101.71644531 -51.57289063 101.55789062 -50.64453125 101.39453125 C-49.61392578 101.23017578 -49.61392578 101.23017578 -48.5625 101.0625 C-48.21623409 98.06219942 -48.21623409 98.06219942 -50.0625 96.5 C-50.5575 96.025625 -51.0525 95.55125 -51.5625 95.0625 C-51.5625 94.4025 -51.5625 93.7425 -51.5625 93.0625 C-52.15160156 92.79824219 -52.74070312 92.53398438 -53.34765625 92.26171875 C-59.44580177 88.95990098 -63.88583671 82.79376925 -67.5625 77.0625 C-68.1953125 74.85546875 -68.1953125 74.85546875 -68.5625 73.0625 C-69.8825 73.0625 -71.2025 73.0625 -72.5625 73.0625 C-72.5625 73.7225 -72.5625 74.3825 -72.5625 75.0625 C-73.8825 75.3925 -75.2025 75.7225 -76.5625 76.0625 C-76.5625 77.7125 -76.5625 79.3625 -76.5625 81.0625 C-78.2125 80.7325 -79.8625 80.4025 -81.5625 80.0625 C-81.4696875 79.010625 -81.4696875 79.010625 -81.375 77.9375 C-81.3798983 74.9416005 -81.3798983 74.9416005 -83.0625 72.125 C-84.6938433 68.79434076 -84.82351934 66.71677071 -84.5625 63.0625 C-83.9025 63.0625 -83.2425 63.0625 -82.5625 63.0625 C-82.459375 62.340625 -82.35625 61.61875 -82.25 60.875 C-81.5625 58.0625 -81.5625 58.0625 -79.9375 55.4375 C-79.48375 54.65375 -79.03 53.87 -78.5625 53.0625 C-79.20907009 49.95948316 -79.20907009 49.95948316 -81.5 49.0625 C-82.180625 48.7325 -82.86125 48.4025 -83.5625 48.0625 C-85.7144437 44.83458445 -85.76336443 43.77849191 -85.5625 40.0625 C-86.44292969 40.08570313 -87.32335937 40.10890625 -88.23046875 40.1328125 C-89.39191406 40.15085938 -90.55335938 40.16890625 -91.75 40.1875 C-92.89855469 40.21070313 -94.04710937 40.23390625 -95.23046875 40.2578125 C-98.50679057 40.0657655 -100.57285568 39.30047986 -103.5625 38.0625 C-106.45027735 38.79860011 -108.9050448 39.7337724 -111.5625 41.0625 C-111.85125 41.8875 -112.14 42.7125 -112.4375 43.5625 C-113.5625 46.0625 -113.5625 46.0625 -115.6875 46.875 C-116.30625 46.936875 -116.925 46.99875 -117.5625 47.0625 C-117.89468192 50.06509517 -117.89468192 50.06509517 -116.0625 51.75 C-115.5675 52.183125 -115.0725 52.61625 -114.5625 53.0625 C-114.8925 54.0525 -115.2225 55.0425 -115.5625 56.0625 C-116.2225 55.0725 -116.8825 54.0825 -117.5625 53.0625 C-120.64615871 52.8122843 -120.64615871 52.8122843 -123.5625 53.0625 C-123.8925 52.4025 -124.2225 51.7425 -124.5625 51.0625 C-123.5725 50.7325 -122.5825 50.4025 -121.5625 50.0625 C-121.088125 49.216875 -120.61375 48.37125 -120.125 47.5 C-119.609375 46.695625 -119.09375 45.89125 -118.5625 45.0625 C-117.2425 45.0625 -115.9225 45.0625 -114.5625 45.0625 C-116.21878346 41.74993308 -119.76199881 41.36821982 -123.1171875 40.16015625 C-125.56715066 39.0604124 -126.72147711 37.95046115 -128.5625 36.0625 C-131.67089021 35.3355774 -131.67089021 35.3355774 -134.5625 35.0625 C-134.830625 35.619375 -135.09875 36.17625 -135.375 36.75 C-136.66372647 39.25962523 -138.09176478 41.65584236 -139.5625 44.0625 C-138.5725 44.3925 -137.5825 44.7225 -136.5625 45.0625 C-137.243125 45.02125 -137.92375 44.98 -138.625 44.9375 C-142.16174168 45.08799965 -145.19573033 46.00625853 -148.5625 47.0625 C-149.76270761 53.15991064 -149.76270761 53.15991064 -148.5625 59.0625 C-147.0775 59.5575 -147.0775 59.5575 -145.5625 60.0625 C-146.17947319 61.54503267 -146.80633896 63.02345174 -147.4375 64.5 C-147.78554688 65.32371094 -148.13359375 66.14742188 -148.4921875 66.99609375 C-149.5625 69.0625 -149.5625 69.0625 -151.5625 70.0625 C-151.0675 71.0525 -151.0675 71.0525 -150.5625 72.0625 C-151.40554688 72.23265625 -152.24859375 72.4028125 -153.1171875 72.578125 C-154.21289062 72.82046875 -155.30859375 73.0628125 -156.4375 73.3125 C-157.52804688 73.54453125 -158.61859375 73.7765625 -159.7421875 74.015625 C-162.61493998 74.7949955 -162.61493998 74.7949955 -163.9375 76.875 C-164.63047011 79.30039539 -164.76157808 81.29384514 -164.6875 83.8125 C-164.66042969 85.01132813 -164.66042969 85.01132813 -164.6328125 86.234375 C-164.60960937 86.83765625 -164.58640625 87.4409375 -164.5625 88.0625 C-165.5525 87.4025 -166.5425 86.7425 -167.5625 86.0625 C-167.46710938 85.34964844 -167.37171875 84.63679688 -167.2734375 83.90234375 C-166.59189009 78.01409114 -166.59531924 73.74546664 -168.5625 68.0625 C-169.75527108 61.44804217 -169.75527108 61.44804217 -168.5625 59.0625 C-169.14 58.794375 -169.7175 58.52625 -170.3125 58.25 C-172.65884823 57.01164955 -174.61457752 55.87128516 -176.5625 54.0625 C-176.5625 52.7425 -176.5625 51.4225 -176.5625 50.0625 C-175.428125 50.000625 -174.29375 49.93875 -173.125 49.875 C-168.57925577 49.34020656 -165.30378762 47.49398873 -161.4453125 45.12109375 C-159.5625 44.0625 -159.5625 44.0625 -157.5625 44.0625 C-157.52125 43.340625 -157.48 42.61875 -157.4375 41.875 C-156.24082595 38.02854771 -153.97454575 36.01115724 -150.5625 34.0625 C-147.45635881 33.38950274 -144.72493471 33.0625 -141.5625 33.0625 C-141.5625 32.0725 -141.5625 31.0825 -141.5625 30.0625 C-139.9125 30.0625 -138.2625 30.0625 -136.5625 30.0625 C-136.5625 30.7225 -136.5625 31.3825 -136.5625 32.0625 C-134.14664426 32.03156827 -134.14664426 32.03156827 -131.5625 31.0625 C-130.52958324 29.07929982 -129.5287501 27.07902194 -128.5625 25.0625 C-126.375 24.1875 -126.375 24.1875 -124.5625 24.0625 C-124.5625 23.4025 -124.5625 22.7425 -124.5625 22.0625 C-113.51507378 15.07409347 -102.888225 13.49167969 -90.01928711 12.34033203 C-87.51841279 12.10298793 -87.51841279 12.10298793 -84.93579102 11.46826172 C-82.5625 11.0625 -82.5625 11.0625 -79.5625 12.0625 C-76.80010649 10.64761552 -74.75886905 9.25886905 -72.5625 7.0625 C-70.55703311 7.36118656 -68.55672795 7.69621323 -66.5625 8.0625 C-65.5725 7.7325 -64.5825 7.4025 -63.5625 7.0625 C-61.22950175 7.02295766 -58.89541811 7.01848268 -56.5625 7.0625 C-56.5625 6.4025 -56.5625 5.7425 -56.5625 5.0625 C-47.69237733 3.14463564 -38.26132445 3.43337768 -29.5625 6.0625 C-28.5725 6.7225 -27.5825 7.3825 -26.5625 8.0625 C-26.5625 8.7225 -26.5625 9.3825 -26.5625 10.0625 C-23.18785976 10.3128577 -23.18785976 10.3128577 -19.5625 10.0625 C-18.55844873 9.06656775 -17.55872883 8.066257 -16.5625 7.0625 C-14.40625 6.33203125 -14.40625 6.33203125 -12.0625 5.875 C-10.90234375 5.63716797 -10.90234375 5.63716797 -9.71875 5.39453125 C-7.5625 5.0625 -7.5625 5.0625 -4.5625 5.0625 C-4.418125 4.423125 -4.27375 3.78375 -4.125 3.125 C-3.30589691 0.12162199 -3.19313651 0.07788138 0 0 Z " fill="#868686" transform="translate(409.5625,22.9375)"/>
<path d="M0 0 C3.3 0.99 6.6 1.98 10 3 C10 3.99 10 4.98 10 6 C10.94875 5.67 11.8975 5.34 12.875 5 C17.55447256 3.6355542 22.16823759 3.82500659 27 4 C25.06382979 10.70212766 25.06382979 10.70212766 22 13 C21.34 13 20.68 13 20 13 C20 13.66 20 14.32 20 15 C20.99 15.33 21.98 15.66 23 16 C22.76603516 17.80597656 22.76603516 17.80597656 22.52734375 19.6484375 C22.33040865 21.2239183 22.13381156 22.79944138 21.9375 24.375 C21.83373047 25.1690625 21.72996094 25.963125 21.62304688 26.78125 C20.92038106 31.00169742 20.92038106 31.00169742 22 35 C22.06950541 36.54023996 22.08452357 38.08334988 22.0625 39.625 C22.05347656 40.44226563 22.04445313 41.25953125 22.03515625 42.1015625 C22.02355469 42.72804687 22.01195312 43.35453125 22 44 C22.66 44.33 23.32 44.66 24 45 C23.40341013 47.48579113 22.72674621 49.92223153 22 52.375 C20.9191992 55.8908331 20.9191992 55.8908331 20.6875 59.1875 C19.53505269 63.90205718 15.85583867 65.42944089 12 68 C11.5359375 68.9590625 11.5359375 68.9590625 11.0625 69.9375 C10 72 10 72 7.875 73.3125 C5.64984058 74.94895691 5.64984058 74.94895691 5.5625 78.25 C6.03981948 82.34130987 7.30283545 85.266238 9 89 C9.061875 90.051875 9.12375 91.10375 9.1875 92.1875 C9.68122002 95.06777011 9.68122002 95.06777011 11.73046875 96.0859375 C13.1700876 96.74150164 14.61422281 97.38723002 16.0625 98.0234375 C18.96653497 99.4871648 19.80189152 101.0047288 21 104 C21.0515625 104.66128906 21.103125 105.32257813 21.15625 106.00390625 C21.60472448 110.60877813 22.35550344 112.44926375 25.98046875 115.546875 C29.22674411 117.8507999 32.60200956 119.92884392 36 122 C37 123 37 123 37.0625 125.5625 C37.041875 126.366875 37.02125 127.17125 37 128 C36.67 127.34 36.34 126.68 36 126 C34.8447583 126.01571045 33.6895166 126.0314209 32.49926758 126.04760742 C28.20360313 126.10200369 23.907969 126.13638533 19.61206055 126.16479492 C17.75458655 126.17985946 15.89714799 126.20031509 14.03979492 126.22631836 C11.36628461 126.26280459 8.69324556 126.2797497 6.01953125 126.29296875 C5.19226028 126.30845261 4.36498932 126.32393646 3.51264954 126.33988953 C-1.16072258 126.34124641 -4.20391286 126.03432292 -8 123 C-13.10480882 115.60048144 -15.53351141 106.71885868 -18.01953125 98.17578125 C-18.67783034 95.16648716 -18.67783034 95.16648716 -20 94 C-21.68142313 93.80870372 -23.36965911 93.67650946 -25.05859375 93.5703125 C-26.08404297 93.49683594 -27.10949219 93.42335938 -28.16601562 93.34765625 C-30.34260067 93.19951852 -32.51970807 93.05886146 -34.69726562 92.92578125 C-35.72400391 92.84972656 -36.75074219 92.77367188 -37.80859375 92.6953125 C-38.75532959 92.63359863 -39.70206543 92.57188477 -40.67749023 92.50830078 C-43 92 -43 92 -45 89 C-44.67 88.34 -44.34 87.68 -44 87 C-44.98742187 86.44570312 -45.97484375 85.89140625 -46.9921875 85.3203125 C-48.28655535 84.58871328 -49.58082087 83.85693301 -50.875 83.125 C-51.52597656 82.76019531 -52.17695313 82.39539063 -52.84765625 82.01953125 C-55.50393354 80.51339464 -57.83019001 79.16980999 -60 77 C-60 75.68 -60 74.36 -60 73 C-60.66 72.67 -61.32 72.34 -62 72 C-61.505 71.01 -61.505 71.01 -61 70 C-61.2475 68.906875 -61.495 67.81375 -61.75 66.6875 C-62 63 -62 63 -60.1875 60.1875 C-56.45046146 57.62286571 -53.58254216 57.2682679 -49.18359375 56.6015625 C-46.70262874 56.18430487 -46.70262874 56.18430487 -45.375 53.375 C-45.25125 52.59125 -45.1275 51.8075 -45 51 C-46.52100023 49.47899977 -48.27509574 48.27976768 -50 47 C-48.51349031 42.2781457 -48.51349031 42.2781457 -47 40 C-43.5 38.625 -43.5 38.625 -40 38 C-38.515 37.505 -38.515 37.505 -37 37 C-35.78130071 34.49552484 -35.78130071 34.49552484 -35 32 C-33.68 32.33 -32.36 32.66 -31 33 C-31 32.01 -31 31.02 -31 30 C-26.71 30 -22.42 30 -18 30 C-18.495 29.01 -18.495 29.01 -19 28 C-18.5625 25.9375 -18.5625 25.9375 -17 24 C-14.3010925 23.32389894 -11.79796207 23.18051368 -9 23 C-9 23.66 -9 24.32 -9 25 C-8.01 24.67 -7.02 24.34 -6 24 C-5.95875 22.80375 -5.9175 21.6075 -5.875 20.375 C-5.26195744 15.22361253 -2.89670991 13.26051238 1 10 C1.66 9.67 2.32 9.34 3 9 C2.01 6.03 1.02 3.06 0 0 Z " fill="#858585" transform="translate(427,24)"/>
<path d="M0 0 C1.2065625 0.0309375 1.2065625 0.0309375 2.4375 0.0625 C2.9325 1.5475 2.9325 1.5475 3.4375 3.0625 C4.18 3.041875 4.9225 3.02125 5.6875 3 C8.16099654 3.05621583 10.06956199 3.43104986 12.4375 4.0625 C13.4275 4.0625 14.4175 4.0625 15.4375 4.0625 C14.9425 2.0825 14.9425 2.0825 14.4375 0.0625 C23.84752278 1.02605353 23.84752278 1.02605353 28.4375 2.0625 C28.4375 3.3825 28.4375 4.7025 28.4375 6.0625 C28.994375 5.83433594 29.55125 5.60617188 30.125 5.37109375 C35.77272653 3.24365622 39.51949896 2.87889979 45.4375 4.0625 C45.4375 5.3825 45.4375 6.7025 45.4375 8.0625 C44.4475 7.5675 44.4475 7.5675 43.4375 7.0625 C43.7675 6.4025 44.0975 5.7425 44.4375 5.0625 C41.10218965 5.37791164 37.76949282 5.71380308 34.4375 6.0625 C33.715625 6.1346875 32.99375 6.206875 32.25 6.28125 C30.6357816 6.46957548 29.03366613 6.75685117 27.4375 7.0625 C27.1075 7.7225 26.7775 8.3825 26.4375 9.0625 C26.4375 7.7425 26.4375 6.4225 26.4375 5.0625 C21.9825 3.0825 21.9825 3.0825 17.4375 1.0625 C18.118125 2.50625 18.79875 3.95 19.5 5.4375 C20.66015625 7.8984375 20.66015625 7.8984375 21.4375 10.0625 C20.16280598 12.61188804 18.94590774 12.80829613 16.4375 14.0625 C14.32981398 15.75072025 13.52877259 16.6590891 12.92578125 19.32421875 C12.86777344 20.12472656 12.80976563 20.92523438 12.75 21.75 C12.68425781 22.55824219 12.61851562 23.36648437 12.55078125 24.19921875 C12.51339844 24.81410156 12.47601563 25.42898437 12.4375 26.0625 C11.1175 26.0625 9.7975 26.0625 8.4375 26.0625 C8.4375 25.4025 8.4375 24.7425 8.4375 24.0625 C7.48875 24.413125 6.54 24.76375 5.5625 25.125 C2.4375 26.0625 2.4375 26.0625 0.4375 25.0625 C-0.56467064 28.64577753 -0.56467064 28.64577753 0.4375 32.0625 C-1.52075873 32.08944851 -3.47912226 32.10887218 -5.4375 32.125 C-7.07332031 32.14240234 -7.07332031 32.14240234 -8.7421875 32.16015625 C-11.5625 32.0625 -11.5625 32.0625 -13.5625 31.0625 C-13.5625 32.0525 -13.5625 33.0425 -13.5625 34.0625 C-14.3978125 34.1553125 -14.3978125 34.1553125 -15.25 34.25 C-18.51237173 35.39623872 -20.24917874 37.55640197 -22.5625 40.0625 C-23.2225 39.7325 -23.8825 39.4025 -24.5625 39.0625 C-24.0675 38.0725 -24.0675 38.0725 -23.5625 37.0625 C-24.325625 36.77375 -25.08875 36.485 -25.875 36.1875 C-28.5625 35.0625 -28.5625 35.0625 -31.5625 33.0625 C-33.6117094 32.61110541 -33.6117094 32.61110541 -35.75 32.4375 C-37.008125 32.31375 -38.26625 32.19 -39.5625 32.0625 C-39.2325 30.4125 -38.9025 28.7625 -38.5625 27.0625 C-39.2225 27.0625 -39.8825 27.0625 -40.5625 27.0625 C-40.5625 27.7225 -40.5625 28.3825 -40.5625 29.0625 C-42.8725 29.0625 -45.1825 29.0625 -47.5625 29.0625 C-48.0575 30.5475 -48.0575 30.5475 -48.5625 32.0625 C-51.2025 31.7325 -53.8425 31.4025 -56.5625 31.0625 C-56.5625 31.7225 -56.5625 32.3825 -56.5625 33.0625 C-57.5525 32.5675 -57.5525 32.5675 -58.5625 32.0625 C-58.0675 30.5775 -58.0675 30.5775 -57.5625 29.0625 C-56.7375 29.371875 -55.9125 29.68125 -55.0625 30 C-50.28096443 30.08538456 -48.63328931 28.12654747 -45.19921875 25.01953125 C-43.46770357 22.94915153 -43.02290238 21.67866881 -42.5625 19.0625 C-42.2325 18.4025 -41.9025 17.7425 -41.5625 17.0625 C-42.21476562 17.10890625 -42.86703125 17.1553125 -43.5390625 17.203125 C-49.65350208 17.45563873 -52.86078967 17.04087028 -57.5625 13.0625 C-58.0575 12.5675 -58.0575 12.5675 -58.5625 12.0625 C-59.1503125 12.743125 -59.1503125 12.743125 -59.75 13.4375 C-61.87082487 15.33892919 -63.89292235 16.12454028 -66.5625 17.0625 C-64.9125 15.4125 -63.2625 13.7625 -61.5625 12.0625 C-70.21979682 12.77292598 -70.21979682 12.77292598 -77.5625 17.0625 C-75.2525 17.0625 -72.9425 17.0625 -70.5625 17.0625 C-70.5625 17.7225 -70.5625 18.3825 -70.5625 19.0625 C-71.7071875 19.371875 -71.7071875 19.371875 -72.875 19.6875 C-76.38479103 21.48320704 -77.08849781 23.49386312 -78.5625 27.0625 C-79.2225 26.7325 -79.8825 26.4025 -80.5625 26.0625 C-80.5625 23.72916667 -80.5625 21.39583333 -80.5625 19.0625 C-81.69429688 19.08570312 -82.82609375 19.10890625 -83.9921875 19.1328125 C-85.47395175 19.15156901 -86.95572312 19.16976934 -88.4375 19.1875 C-89.18386719 19.20425781 -89.93023437 19.22101562 -90.69921875 19.23828125 C-92.65444461 19.2558959 -94.60992021 19.16570189 -96.5625 19.0625 C-97.2225 18.4025 -97.8825 17.7425 -98.5625 17.0625 C-98.2325 16.4025 -97.9025 15.7425 -97.5625 15.0625 C-103.9975 15.5575 -103.9975 15.5575 -110.5625 16.0625 C-110.5625 15.7325 -110.5625 15.4025 -110.5625 15.0625 C-109.5566687 14.93403687 -109.5566687 14.93403687 -108.53051758 14.80297852 C-105.47844286 14.4121335 -102.42672146 14.01859335 -99.375 13.625 C-98.31990234 13.49029297 -97.26480469 13.35558594 -96.17773438 13.21679688 C-95.15615234 13.08466797 -94.13457031 12.95253906 -93.08203125 12.81640625 C-91.67594604 12.63573608 -91.67594604 12.63573608 -90.24145508 12.45141602 C-87.55254876 12.09809278 -87.55254876 12.09809278 -84.9050293 11.45288086 C-82.5625 11.0625 -82.5625 11.0625 -79.5625 12.0625 C-76.80010649 10.64761552 -74.75886905 9.25886905 -72.5625 7.0625 C-70.55703311 7.36118656 -68.55672795 7.69621323 -66.5625 8.0625 C-65.5725 7.7325 -64.5825 7.4025 -63.5625 7.0625 C-61.22950175 7.02295766 -58.89541811 7.01848268 -56.5625 7.0625 C-56.5625 6.4025 -56.5625 5.7425 -56.5625 5.0625 C-47.69237733 3.14463564 -38.26132445 3.43337768 -29.5625 6.0625 C-28.5725 6.7225 -27.5825 7.3825 -26.5625 8.0625 C-26.5625 8.7225 -26.5625 9.3825 -26.5625 10.0625 C-23.18785976 10.3128577 -23.18785976 10.3128577 -19.5625 10.0625 C-18.55844873 9.06656775 -17.55872883 8.066257 -16.5625 7.0625 C-14.40625 6.33203125 -14.40625 6.33203125 -12.0625 5.875 C-10.90234375 5.63716797 -10.90234375 5.63716797 -9.71875 5.39453125 C-7.5625 5.0625 -7.5625 5.0625 -4.5625 5.0625 C-4.418125 4.423125 -4.27375 3.78375 -4.125 3.125 C-3.30589691 0.12162199 -3.19313651 0.07788138 0 0 Z " fill="#979797" transform="translate(409.5625,22.9375)"/>
<path d="M0 0 C9.41002278 -0.18451025 9.41002278 -0.18451025 14 1 C14 1.66 14 2.32 14 3 C15.65 3 17.3 3 19 3 C19.66 4.32 20.32 5.64 21 7 C24.3 7 27.6 7 31 7 C31 7.66 31 8.32 31 9 C32.32 9.33 33.64 9.66 35 10 C33.25740319 19.59453303 33.25740319 19.59453303 30 23 C30.33 23.33 30.66 23.66 31 24 C33 27 33 27 32.75390625 28.828125 C31.83443636 31.47696054 30.90832442 34.11937898 29.9375 36.75 C29.57527344 37.73484375 29.21304688 38.7196875 28.83984375 39.734375 C28.56269531 40.48203125 28.28554688 41.2296875 28 42 C24.62537285 41.45276317 22.91765 40.9451 20 39 C19.70703125 36.3984375 19.70703125 36.3984375 19.8125 33.375 C19.85310547 31.87066406 19.85310547 31.87066406 19.89453125 30.3359375 C19.92933594 29.56507812 19.96414063 28.79421875 20 28 C19.01 27.67 18.02 27.34 17 27 C15.8125 23.9375 15.8125 23.9375 15 21 C14.236875 21 13.47375 21 12.6875 21 C10.79166667 21 8.89583333 21 7 21 C7 21.33 7 21.66 7 22 C8.98 21.67 10.96 21.34 13 21 C13.495 23.97 13.495 23.97 14 27 C15.65 27.33 17.3 27.66 19 28 C19 30.97 19 33.94 19 37 C14.25 38.125 14.25 38.125 12 37 C8.70524506 36.7672987 5.41738847 36.60633052 2.1171875 36.48242188 C-2.24597139 36.26750791 -5.87980842 35.6001373 -10 34 C-10 34.66 -10 35.32 -10 36 C-10.66 36 -11.32 36 -12 36 C-12 36.99 -12 37.98 -12 39 C-11.01 39 -10.02 39 -9 39 C-8.86473861 41.24834496 -8.76789196 43.49902514 -8.6875 45.75 C-8.62949219 47.00296875 -8.57148438 48.2559375 -8.51171875 49.546875 C-9 53 -9 53 -11.51953125 55.453125 C-12.33808594 55.96359375 -13.15664063 56.4740625 -14 57 C-16.32548919 55.62271027 -18.63368893 54.22523546 -20.9375 52.8125 C-21.59685547 52.42513672 -22.25621094 52.03777344 -22.93554688 51.63867188 C-27.81850962 48.60873089 -27.81850962 48.60873089 -28.81640625 45.26171875 C-28.87699219 44.51535156 -28.93757813 43.76898438 -29 43 C-29.66 42.67 -30.32 42.34 -31 42 C-30.67 41.34 -30.34 40.68 -30 40 C-30.2475 38.906875 -30.495 37.81375 -30.75 36.6875 C-31 33 -31 33 -29.1875 30.1875 C-25.45046146 27.62286571 -22.58254216 27.2682679 -18.18359375 26.6015625 C-15.70262874 26.18430487 -15.70262874 26.18430487 -14.375 23.375 C-14.25125 22.59125 -14.1275 21.8075 -14 21 C-15.52100023 19.47899977 -17.27509574 18.27976768 -19 17 C-17.51349031 12.2781457 -17.51349031 12.2781457 -16 10 C-12.5 8.625 -12.5 8.625 -9 8 C-8.01 7.67 -7.02 7.34 -6 7 C-4.78130071 4.49552484 -4.78130071 4.49552484 -4 2 C-2.68 2.33 -1.36 2.66 0 3 C0 2.01 0 1.02 0 0 Z " fill="#818181" transform="translate(396,54)"/>
<path d="M0 0 C3.3 0.99 6.6 1.98 10 3 C10 3.99 10 4.98 10 6 C10.94875 5.67 11.8975 5.34 12.875 5 C17.55447256 3.6355542 22.16823759 3.82500659 27 4 C25.06382979 10.70212766 25.06382979 10.70212766 22 13 C21.34 13 20.68 13 20 13 C20 13.66 20 14.32 20 15 C20.99 15.33 21.98 15.66 23 16 C22.76603516 17.80597656 22.76603516 17.80597656 22.52734375 19.6484375 C22.33040865 21.2239183 22.13381156 22.79944138 21.9375 24.375 C21.83373047 25.1690625 21.72996094 25.963125 21.62304688 26.78125 C20.92038106 31.00169742 20.92038106 31.00169742 22 35 C22.06950541 36.54023996 22.08452357 38.08334988 22.0625 39.625 C22.05347656 40.44226563 22.04445313 41.25953125 22.03515625 42.1015625 C22.02355469 42.72804687 22.01195312 43.35453125 22 44 C22.99 44.495 22.99 44.495 24 45 C23.40341013 47.48579113 22.72674621 49.92223153 22 52.375 C20.9191992 55.8908331 20.9191992 55.8908331 20.6875 59.1875 C19.53505269 63.90205718 15.85583867 65.42944089 12 68 C11.690625 68.639375 11.38125 69.27875 11.0625 69.9375 C10 72 10 72 7.875 73.3125 C5.64984058 74.94895691 5.64984058 74.94895691 5.5625 78.25 C6.03981948 82.34130987 7.30283545 85.266238 9 89 C9.144375 90.093125 9.28875 91.18625 9.4375 92.3125 C9.70387138 95.1505304 9.70387138 95.1505304 12.0625 96.375 C12.701875 96.58125 13.34125 96.7875 14 97 C12 98 12 98 10 97.5625 C7.31511842 95.46493626 7.08953398 93.25442347 6.4375 90.01171875 C6.04370847 87.86642737 6.04370847 87.86642737 4.875 85.5 C3.62179726 81.91942075 3.87177357 78.78267959 4 75 C2.9275 74.87625 1.855 74.7525 0.75 74.625 C-2.37863615 74.10356064 -4.33480424 73.59911746 -7 72 C-5.68 72 -4.36 72 -3 72 C-2.87882812 71.38511719 -2.75765625 70.77023438 -2.6328125 70.13671875 C-2.46523438 69.32847656 -2.29765625 68.52023438 -2.125 67.6875 C-1.96257812 66.88699219 -1.80015625 66.08648437 -1.6328125 65.26171875 C-1 63 -1 63 1 60 C0.1654738 57.49642139 -0.79371992 55.33214148 -2 53 C-1.525625 52.484375 -1.05125 51.96875 -0.5625 51.4375 C1.43044599 48.32850426 1.59600788 45.63592912 2 42 C2.33 41.34 2.66 40.68 3 40 C1.515 39.505 1.515 39.505 0 39 C0 38.34 0 37.68 0 37 C-0.9075 37.185625 -1.815 37.37125 -2.75 37.5625 C-5.68314324 37.95734621 -7.2644657 37.94691572 -10 37 C-10.33 37.66 -10.66 38.32 -11 39 C-11.33 37.02 -11.66 35.04 -12 33 C-13.65 33 -15.3 33 -17 33 C-18.3191091 30.3617818 -19.11704067 28.70224404 -18.625 25.75 C-15.94200587 22.8606217 -12.8398436 23.24773185 -9 23 C-9 23.66 -9 24.32 -9 25 C-8.01 24.67 -7.02 24.34 -6 24 C-5.95875 22.80375 -5.9175 21.6075 -5.875 20.375 C-5.26195744 15.22361253 -2.89670991 13.26051238 1 10 C1.66 9.67 2.32 9.34 3 9 C1.515 4.545 1.515 4.545 0 0 Z " fill="#898989" transform="translate(427,24)"/>
<path d="M0 0 C0.99 0.495 0.99 0.495 2 1 C1.0409375 1.6496875 1.0409375 1.6496875 0.0625 2.3125 C-2.26746003 3.91239177 -2.26746003 3.91239177 -3 7 C-2.01 7.33 -1.02 7.66 0 8 C-0.721875 8.165 -1.44375 8.33 -2.1875 8.5 C-5.77770631 10.4147767 -6.8045372 12.65317415 -8.828125 16.08203125 C-10.3318785 18.54317448 -11.28356751 19.913427 -14 21 C-16.82024252 20.61418648 -19.26487539 19.86612279 -22 19 C-22.268125 19.556875 -22.53625 20.11375 -22.8125 20.6875 C-24.10122647 23.19712523 -25.52926478 25.59334236 -27 28 C-26.01 28.33 -25.02 28.66 -24 29 C-24.680625 28.95875 -25.36125 28.9175 -26.0625 28.875 C-29.59924168 29.02549965 -32.63323033 29.94375853 -36 31 C-37.20020761 37.09741064 -37.20020761 37.09741064 -36 43 C-34.515 43.495 -34.515 43.495 -33 44 C-33.61697319 45.48253267 -34.24383896 46.96095174 -34.875 48.4375 C-35.39707031 49.67306641 -35.39707031 49.67306641 -35.9296875 50.93359375 C-37 53 -37 53 -39 54 C-38.67 54.66 -38.34 55.32 -38 56 C-38.84304688 56.17015625 -39.68609375 56.3403125 -40.5546875 56.515625 C-41.65039062 56.75796875 -42.74609375 57.0003125 -43.875 57.25 C-45.51082031 57.59804687 -45.51082031 57.59804687 -47.1796875 57.953125 C-50.05243998 58.7324955 -50.05243998 58.7324955 -51.375 60.8125 C-52.06797011 63.23789539 -52.19907808 65.23134514 -52.125 67.75 C-52.09792969 68.94882813 -52.09792969 68.94882813 -52.0703125 70.171875 C-52.04710937 70.77515625 -52.02390625 71.3784375 -52 72 C-52.99 71.34 -53.98 70.68 -55 70 C-54.90460938 69.28714844 -54.80921875 68.57429688 -54.7109375 67.83984375 C-54.02939009 61.95159114 -54.03281924 57.68296664 -56 52 C-57.19277108 45.38554217 -57.19277108 45.38554217 -56 43 C-56.5775 42.731875 -57.155 42.46375 -57.75 42.1875 C-60.09634823 40.94914955 -62.05207752 39.80878516 -64 38 C-64 36.68 -64 35.36 -64 34 C-62.865625 33.938125 -61.73125 33.87625 -60.5625 33.8125 C-56.01675577 33.27770656 -52.74128762 31.43148873 -48.8828125 29.05859375 C-47 28 -47 28 -45 28 C-44.95875 27.278125 -44.9175 26.55625 -44.875 25.8125 C-43.67832595 21.96604771 -41.41204575 19.94865724 -38 18 C-34.89385881 17.32700274 -32.16243471 17 -29 17 C-29 16.01 -29 15.02 -29 14 C-27.35 14 -25.7 14 -24 14 C-24 14.66 -24 15.32 -24 16 C-21.58414426 15.96906827 -21.58414426 15.96906827 -19 15 C-17.96708324 13.01679982 -16.9662501 11.01652194 -16 9 C-13.8125 8.125 -13.8125 8.125 -12 8 C-12 7.34 -12 6.68 -12 6 C-10.04669132 4.96958487 -8.08718472 3.9509107 -6.125 2.9375 C-4.48917969 2.08478516 -4.48917969 2.08478516 -2.8203125 1.21484375 C-1.88960938 0.81394531 -0.95890625 0.41304687 0 0 Z " fill="#929292" transform="translate(297,39)"/>
<path d="M0 0 C0.66 0.33 1.32 0.66 2 1 C1.01 1.33 0.02 1.66 -1 2 C-1 2.66 -1 3.32 -1 4 C-0.01 4.33 0.98 4.66 2 5 C1.84402344 6.20398437 1.68804687 7.40796875 1.52734375 8.6484375 C1.33040865 10.2239183 1.13381156 11.79944138 0.9375 13.375 C0.83373047 14.1690625 0.72996094 14.963125 0.62304688 15.78125 C-0.07961894 20.00169742 -0.07961894 20.00169742 1 24 C1.06950541 25.54023996 1.08452357 27.08334988 1.0625 28.625 C1.05347656 29.44226563 1.04445313 30.25953125 1.03515625 31.1015625 C1.02355469 31.72804688 1.01195312 32.35453125 1 33 C1.66 33.33 2.32 33.66 3 34 C2.40341013 36.48579113 1.72674621 38.92223153 1 41.375 C-0.0808008 44.8908331 -0.0808008 44.8908331 -0.3125 48.1875 C-1.46494731 52.90205718 -5.14416133 54.42944089 -9 57 C-9.309375 57.639375 -9.61875 58.27875 -9.9375 58.9375 C-11 61 -11 61 -13.125 62.3125 C-15.35015942 63.94895691 -15.35015942 63.94895691 -15.4375 67.25 C-14.96018052 71.34130987 -13.69716455 74.266238 -12 78 C-11.855625 79.093125 -11.71125 80.18625 -11.5625 81.3125 C-11.29612862 84.1505304 -11.29612862 84.1505304 -8.9375 85.375 C-8.298125 85.58125 -7.65875 85.7875 -7 86 C-9 87 -9 87 -11 86.5625 C-13.68488158 84.46493626 -13.91046602 82.25442347 -14.5625 79.01171875 C-14.95629153 76.86642737 -14.95629153 76.86642737 -16.125 74.5 C-17.37820274 70.91942075 -17.12822643 67.78267959 -17 64 C-18.0725 63.87625 -19.145 63.7525 -20.25 63.625 C-23.37863615 63.10356064 -25.33480424 62.59911746 -28 61 C-26.68 61 -25.36 61 -24 61 C-23.87882812 60.38511719 -23.75765625 59.77023438 -23.6328125 59.13671875 C-23.38144531 57.92435547 -23.38144531 57.92435547 -23.125 56.6875 C-22.96257812 55.88699219 -22.80015625 55.08648437 -22.6328125 54.26171875 C-22 52 -22 52 -20 49 C-20.8345262 46.49642139 -21.79371992 44.33214148 -23 42 C-22.2884375 41.2265625 -22.2884375 41.2265625 -21.5625 40.4375 C-19.56955401 37.32850426 -19.40399212 34.63592912 -19 31 C-18.67 30.34 -18.34 29.68 -18 29 C-18.99 28.67 -19.98 28.34 -21 28 C-20.67 27.34 -20.34 26.68 -20 26 C-18.88625 26.5259375 -18.88625 26.5259375 -17.75 27.0625 C-14.8677274 28.04509293 -13.78823655 28.0326802 -11 27 C-10.896875 25.741875 -10.79375 24.48375 -10.6875 23.1875 C-10.35934935 20.68202542 -10.11211423 19.18882396 -8.8125 17 C-6.18759888 15.55177869 -3.93829584 15.80411361 -1 16 C-1.020625 14.9275 -1.04125 13.855 -1.0625 12.75 C-1.0142016 9.85209576 -0.86844115 7.71387859 0 5 C-1.32 5 -2.64 5 -4 5 C-2.25 1.125 -2.25 1.125 0 0 Z " fill="#959595" transform="translate(448,35)"/>
<path d="M0 0 C0.06058594 0.74765625 0.12117188 1.4953125 0.18359375 2.265625 C0.30927734 3.74289063 0.30927734 3.74289063 0.4375 5.25 C0.51871094 6.22453125 0.59992188 7.1990625 0.68359375 8.203125 C0.96346926 11.22771622 0.96346926 11.22771622 2 15 C5.63 15 9.26 15 13 15 C13 15.99 13 16.98 13 18 C12.67 17.67 12.34 17.34 12 17 C9.76925356 16.92760255 7.55507809 17.00350207 5.32421875 17.0625 C3 17 3 17 0.83984375 16.41015625 C0.23269531 16.27480469 -0.37445313 16.13945313 -1 16 C-3.13344768 17.3916876 -3.13344768 17.3916876 -5 19 C-5.66 19 -6.32 19 -7 19 C-7 19.66 -7 20.32 -7 21 C-5.68 21 -4.36 21 -3 21 C-3.33 21.66 -3.66 22.32 -4 23 C-6.33157492 23.34541851 -8.66508361 23.67794257 -11 24 C-14.17192332 25.68791748 -14.17192332 25.68791748 -14.9375 28.5625 C-15.288125 29.366875 -15.63875 30.17125 -16 31 C-18.125 31.8125 -18.125 31.8125 -20 32 C-20.33218192 35.00259517 -20.33218192 35.00259517 -18.5 36.6875 C-18.005 37.120625 -17.51 37.55375 -17 38 C-17.33 38.99 -17.66 39.98 -18 41 C-18.66 40.01 -19.32 39.02 -20 38 C-23.08365871 37.7497843 -23.08365871 37.7497843 -26 38 C-26.33 37.34 -26.66 36.68 -27 36 C-25.515 35.505 -25.515 35.505 -24 35 C-23.2884375 33.7315625 -23.2884375 33.7315625 -22.5625 32.4375 C-22.046875 31.633125 -21.53125 30.82875 -21 30 C-19.68 30 -18.36 30 -17 30 C-18.4163067 27.1673866 -20.14497293 26.98292167 -23.0625 25.875 C-23.98160156 25.52179687 -24.90070313 25.16859375 -25.84765625 24.8046875 C-26.55792969 24.53914063 -27.26820313 24.27359375 -28 24 C-27.625 21.5625 -27.625 21.5625 -27 19 C-26.34 18.67 -25.68 18.34 -25 18 C-23.99159447 16.24342262 -22.98602317 14.4848876 -22.015625 12.70703125 C-20.90224647 10.83569887 -19.53184699 9.53184699 -18 8 C-17.855625 7.34 -17.71125 6.68 -17.5625 6 C-16.76103979 3.15036369 -15.54703845 2.44561642 -13 1 C-8.65132222 -0.06301012 -4.46216854 -0.08924337 0 0 Z " fill="#868686" transform="translate(312,38)"/>
<path d="M0 0 C1.2065625 0.0309375 1.2065625 0.0309375 2.4375 0.0625 C2.7675 1.0525 3.0975 2.0425 3.4375 3.0625 C4.18 3.041875 4.9225 3.02125 5.6875 3 C8.16099654 3.05621583 10.06956199 3.43104986 12.4375 4.0625 C13.4275 4.0625 14.4175 4.0625 15.4375 4.0625 C14.9425 2.0825 14.9425 2.0825 14.4375 0.0625 C23.84752278 1.02605353 23.84752278 1.02605353 28.4375 2.0625 C28.4375 3.3825 28.4375 4.7025 28.4375 6.0625 C28.994375 5.83433594 29.55125 5.60617188 30.125 5.37109375 C35.77272653 3.24365622 39.51949896 2.87889979 45.4375 4.0625 C45.4375 5.3825 45.4375 6.7025 45.4375 8.0625 C44.7775 7.7325 44.1175 7.4025 43.4375 7.0625 C43.7675 6.4025 44.0975 5.7425 44.4375 5.0625 C41.10218965 5.37791164 37.76949282 5.71380308 34.4375 6.0625 C33.715625 6.1346875 32.99375 6.206875 32.25 6.28125 C30.6357816 6.46957548 29.03366613 6.75685117 27.4375 7.0625 C27.1075 7.7225 26.7775 8.3825 26.4375 9.0625 C26.4375 7.7425 26.4375 6.4225 26.4375 5.0625 C21.9825 3.0825 21.9825 3.0825 17.4375 1.0625 C18.4584375 3.228125 18.4584375 3.228125 19.5 5.4375 C20.66015625 7.8984375 20.66015625 7.8984375 21.4375 10.0625 C20.16280598 12.61188804 18.94590774 12.80829613 16.4375 14.0625 C14.32981398 15.75072025 13.52877259 16.6590891 12.92578125 19.32421875 C12.86777344 20.12472656 12.80976563 20.92523438 12.75 21.75 C12.68425781 22.55824219 12.61851562 23.36648437 12.55078125 24.19921875 C12.51339844 24.81410156 12.47601563 25.42898437 12.4375 26.0625 C11.1175 26.0625 9.7975 26.0625 8.4375 26.0625 C8.4375 25.4025 8.4375 24.7425 8.4375 24.0625 C7.48875 24.413125 6.54 24.76375 5.5625 25.125 C2.4375 26.0625 2.4375 26.0625 0.4375 25.0625 C-0.56467064 28.64577753 -0.56467064 28.64577753 0.4375 32.0625 C-1.52075873 32.08944851 -3.47912226 32.10887218 -5.4375 32.125 C-7.07332031 32.14240234 -7.07332031 32.14240234 -8.7421875 32.16015625 C-11.5625 32.0625 -11.5625 32.0625 -13.5625 31.0625 C-13.5625 32.0525 -13.5625 33.0425 -13.5625 34.0625 C-14.8825 33.7325 -16.2025 33.4025 -17.5625 33.0625 C-16.375 31.5625 -16.375 31.5625 -14.5625 30.0625 C-11.875 29.875 -11.875 29.875 -9.5625 30.0625 C-9.2325 28.7425 -8.9025 27.4225 -8.5625 26.0625 C-8.5625 27.3825 -8.5625 28.7025 -8.5625 30.0625 C-6.2525 29.4025 -3.9425 28.7425 -1.5625 28.0625 C-1.2325 26.7425 -0.9025 25.4225 -0.5625 24.0625 C0.0975 24.0625 0.7575 24.0625 1.4375 24.0625 C0.1175 22.7425 -1.2025 21.4225 -2.5625 20.0625 C-2.2325 19.0725 -1.9025 18.0825 -1.5625 17.0625 C-0.9025 17.0625 -0.2425 17.0625 0.4375 17.0625 C0.4375 16.0725 0.4375 15.0825 0.4375 14.0625 C-0.2225 13.7325 -0.8825 13.4025 -1.5625 13.0625 C-0.9025 13.0625 -0.2425 13.0625 0.4375 13.0625 C0.06496094 12.53140625 -0.30757813 12.0003125 -0.69140625 11.453125 C-1.16449219 10.74671875 -1.63757813 10.0403125 -2.125 9.3125 C-2.60066406 8.61640625 -3.07632812 7.9203125 -3.56640625 7.203125 C-4.5625 5.0625 -4.5625 5.0625 -4.27734375 2.859375 C-3.18466274 0.11274515 -3.07910639 0.07510016 0 0 Z " fill="#979797" transform="translate(409.5625,22.9375)"/>
<path d="M0 0 C0.66 0.33 1.32 0.66 2 1 C1.0409375 1.6496875 1.0409375 1.6496875 0.0625 2.3125 C-2.26746003 3.91239177 -2.26746003 3.91239177 -3 7 C-2.01 7.33 -1.02 7.66 0 8 C-0.721875 8.165 -1.44375 8.33 -2.1875 8.5 C-5.77770631 10.4147767 -6.8045372 12.65317415 -8.828125 16.08203125 C-10.3318785 18.54317448 -11.28356751 19.913427 -14 21 C-16.82024252 20.61418648 -19.26487539 19.86612279 -22 19 C-22.268125 19.556875 -22.53625 20.11375 -22.8125 20.6875 C-24.10122647 23.19712523 -25.52926478 25.59334236 -27 28 C-26.01 28.33 -25.02 28.66 -24 29 C-24.680625 28.95875 -25.36125 28.9175 -26.0625 28.875 C-29.59924168 29.02549965 -32.63323033 29.94375853 -36 31 C-37.20020761 37.09741064 -37.20020761 37.09741064 -36 43 C-35.01 43.33 -34.02 43.66 -33 44 C-33.66 45.32 -34.32 46.64 -35 48 C-35.33 47.34 -35.66 46.68 -36 46 C-35.67 45.34 -35.34 44.68 -35 44 C-35.66 44 -36.32 44 -37 44 C-38.76462683 40.91190305 -39 39.76687864 -39 36 C-42.465 34.515 -42.465 34.515 -46 33 C-46 32.01 -46 31.02 -46 30 C-47.65 30.33 -49.3 30.66 -51 31 C-50.67 30.34 -50.34 29.68 -50 29 C-47.4375 28.375 -47.4375 28.375 -45 28 C-44.95875 27.278125 -44.9175 26.55625 -44.875 25.8125 C-43.67832595 21.96604771 -41.41204575 19.94865724 -38 18 C-34.89385881 17.32700274 -32.16243471 17 -29 17 C-29 16.01 -29 15.02 -29 14 C-27.35 14 -25.7 14 -24 14 C-24 14.66 -24 15.32 -24 16 C-21.58414426 15.96906827 -21.58414426 15.96906827 -19 15 C-17.96708324 13.01679982 -16.9662501 11.01652194 -16 9 C-13.8125 8.125 -13.8125 8.125 -12 8 C-12 7.34 -12 6.68 -12 6 C-10.04669132 4.96958487 -8.08718472 3.9509107 -6.125 2.9375 C-4.48917969 2.08478516 -4.48917969 2.08478516 -2.8203125 1.21484375 C-1.88960938 0.81394531 -0.95890625 0.41304687 0 0 Z " fill="#ADADAD" transform="translate(297,39)"/>
<path d="M0 0 C3.3 0.99 6.6 1.98 10 3 C10 3.99 10 4.98 10 6 C10.94875 5.67 11.8975 5.34 12.875 5 C17.55447256 3.6355542 22.16823759 3.82500659 27 4 C25.90501601 9.35325507 25.90501601 9.35325507 23.34375 11.18359375 C22.7146875 11.51488281 22.085625 11.84617187 21.4375 12.1875 C17.73860517 13.63137714 17.73860517 13.63137714 17 17 C15.35 17.33 13.7 17.66 12 18 C12 18.66 12 19.32 12 20 C11.43410156 20.23074219 10.86820312 20.46148437 10.28515625 20.69921875 C8.06958715 21.68434877 6.02342445 22.66103202 4 24 C2.87184635 26.6147267 2.87184635 26.6147267 3 29 C2.13375 27.9790625 2.13375 27.9790625 1.25 26.9375 C0.5075 26.298125 -0.235 25.65875 -1 25 C-3.1186997 25.32106296 -3.1186997 25.32106296 -5 26 C-5.91551286 17.42130545 -5.91551286 17.42130545 -3.734375 14.03515625 C-1.67741642 11.99317552 0.4007727 10.29961365 3 9 C2.01 6.03 1.02 3.06 0 0 Z " fill="#8C8C8C" transform="translate(427,24)"/>
<path d="M0 0 C1.65 0 3.3 0 5 0 C5.33 0.99 5.66 1.98 6 3 C6.763125 2.938125 7.52625 2.87625 8.3125 2.8125 C11 3 11 3 12.75 4.125 C14.46657918 6.69986878 14.64004494 8.94038201 15 12 C15.185625 13.11375 15.37125 14.2275 15.5625 15.375 C15.706875 16.24125 15.85125 17.1075 16 18 C14.35 18 12.7 18 11 18 C10.67 18.99 10.34 19.98 10 21 C8.68352881 21.69937532 7.34977849 22.36729133 6 23 C5.67 23.66 5.34 24.32 5 25 C0.25 23.125 0.25 23.125 -2 22 C-1.67 21.01 -1.34 20.02 -1 19 C-0.63508688 17.6069375 -0.28137021 16.21090552 0.0625 14.8125 C0.371875 13.554375 0.68125 12.29625 1 11 C-1.91765 9.0549 -3.62537285 8.54723683 -7 8 C-5.35 6.02 -3.7 4.04 -2 2 C0 4 0 4 0 7 C0.99 7 1.98 7 3 7 C2.34 6.67 1.68 6.34 1 6 C0.375 2.9375 0.375 2.9375 0 0 Z " fill="#818181" transform="translate(384,35)"/>
<path d="M0 0 C2.00546689 0.29868656 4.00577205 0.63371323 6 1 C6.99 0.67 7.98 0.34 9 0 C11.33299825 -0.03954234 13.66708189 -0.04401732 16 0 C15.34 0.66 14.68 1.32 14 2 C16.31 2.66 18.62 3.32 21 4 C21 3.01 21 2.02 21 1 C21.66 1 22.32 1 23 1 C22.6875 2.9375 22.6875 2.9375 22 5 C21.01 5.33 20.02 5.66 19 6 C19.66 6.99 20.32 7.98 21 9 C18.08482708 7.92598892 16.22189824 7.22189824 14 5 C13.608125 5.45375 13.21625 5.9075 12.8125 6.375 C10.69167513 8.27642919 8.66957765 9.06204028 6 10 C7.65 8.35 9.3 6.7 11 5 C2.34270318 5.71042598 2.34270318 5.71042598 -5 10 C-2.69 10 -0.38 10 2 10 C2 10.66 2 11.32 2 12 C1.236875 12.20625 0.47375 12.4125 -0.3125 12.625 C-3.82229103 14.42070704 -4.52599781 16.43136312 -6 20 C-6.66 19.67 -7.32 19.34 -8 19 C-8 16.66666667 -8 14.33333333 -8 12 C-9.13179688 12.02320313 -10.26359375 12.04640625 -11.4296875 12.0703125 C-12.91145175 12.08906901 -14.39322312 12.10726934 -15.875 12.125 C-16.62136719 12.14175781 -17.36773437 12.15851562 -18.13671875 12.17578125 C-20.09194461 12.1933959 -22.04742021 12.10320189 -24 12 C-24.66 11.34 -25.32 10.68 -26 10 C-25.67 9.34 -25.34 8.68 -25 8 C-31.435 8.495 -31.435 8.495 -38 9 C-38 8.67 -38 8.34 -38 8 C-36.9941687 7.87153687 -36.9941687 7.87153687 -35.96801758 7.74047852 C-32.91594286 7.3496335 -29.86422146 6.95609335 -26.8125 6.5625 C-25.75740234 6.42779297 -24.70230469 6.29308594 -23.61523438 6.15429688 C-22.08286133 5.95610352 -22.08286133 5.95610352 -20.51953125 5.75390625 C-19.58214111 5.63345947 -18.64475098 5.5130127 -17.67895508 5.38891602 C-14.99004876 5.03559278 -14.99004876 5.03559278 -12.3425293 4.39038086 C-10 4 -10 4 -7 5 C-4.23760649 3.58511552 -2.19636905 2.19636905 0 0 Z " fill="#A9A9A9" transform="translate(337,30)"/>
<path d="M0 0 C3.56417964 4.13904732 5 6.5731583 5 12 C3.5 13.6875 3.5 13.6875 2 15 C3.32 15.66 4.64 16.32 6 17 C6 17.66 6 18.32 6 19 C5.34 19.33 4.68 19.66 4 20 C3.67 20.99 3.34 21.98 3 23 C0.39757586 24.64820195 -0.86248779 25 -4 25 C-6.28571429 16.57142857 -6.28571429 16.57142857 -6 12 C-6.66 12 -7.32 12 -8 12 C-8 11.34 -8 10.68 -8 10 C-7.34 9.67 -6.68 9.34 -6 9 C-8.64 9 -11.28 9 -14 9 C-12.84826645 6.53199953 -11.95216435 4.95216435 -10 3 C-8.31238142 2.39688385 -6.59985524 1.86149763 -4.875 1.375 C-3.96492188 1.11460938 -3.05484375 0.85421875 -2.1171875 0.5859375 C-1.41851562 0.39257812 -0.71984375 0.19921875 0 0 Z " fill="#828282" transform="translate(405,28)"/>
<path d="M0 0 C3.7097218 0.69557284 4.36070871 1.92320871 7 4.5625 C10.26324025 6.09085303 13.6095769 7.34608866 17 8.5625 C17 9.2225 17 9.8825 17 10.5625 C16.401875 10.624375 15.80375 10.68625 15.1875 10.75 C12.74165425 11.38729523 12.74165425 11.38729523 11.625 14.0625 C10 16.5625 10 16.5625 7.25 17.5625 C3.07324185 17.5625 0.71664296 16.42082148 -3 14.5625 C-3 13.2425 -3 11.9225 -3 10.5625 C-4.65 10.2325 -6.3 9.9025 -8 9.5625 C-7.26974388 4.63327119 -5.04750325 0.94640686 0 0 Z " fill="#808080" transform="translate(278,57.4375)"/>
<path d="M0 0 C0.66 0.33 1.32 0.66 2 1 C1.0409375 1.6496875 1.0409375 1.6496875 0.0625 2.3125 C-2.26746003 3.91239177 -2.26746003 3.91239177 -3 7 C-2.01 7.33 -1.02 7.66 0 8 C-0.721875 8.165 -1.44375 8.33 -2.1875 8.5 C-5.77770631 10.4147767 -6.8045372 12.65317415 -8.828125 16.08203125 C-10.3318785 18.54317448 -11.28356751 19.913427 -14 21 C-16.82024252 20.61418648 -19.26487539 19.86612279 -22 19 C-22.268125 19.556875 -22.53625 20.11375 -22.8125 20.6875 C-24.10122647 23.19712523 -25.52926478 25.59334236 -27 28 C-26.01 28.33 -25.02 28.66 -24 29 C-24.680625 28.95875 -25.36125 28.9175 -26.0625 28.875 C-29.59924168 29.02549965 -32.63323033 29.94375853 -36 31 C-36 31.99 -36 32.98 -36 34 C-36.66 33.67 -37.32 33.34 -38 33 C-37 30 -37 30 -35.0625 28.9375 C-34.0415625 28.4734375 -34.0415625 28.4734375 -33 28 C-31.49985533 26.49985533 -30.02468419 24.974668 -28.5625 23.4375 C-26 21 -26 21 -23 20 C-23 19.01 -23 18.02 -23 17 C-23.66 17 -24.32 17 -25 17 C-25 16.34 -25 15.68 -25 15 C-25.99 15 -26.98 15 -28 15 C-28.33 15.66 -28.66 16.32 -29 17 C-29 16.01 -29 15.02 -29 14 C-27.35 14 -25.7 14 -24 14 C-24 14.66 -24 15.32 -24 16 C-21.58414426 15.96906827 -21.58414426 15.96906827 -19 15 C-17.96708324 13.01679982 -16.9662501 11.01652194 -16 9 C-13.8125 8.125 -13.8125 8.125 -12 8 C-12 7.34 -12 6.68 -12 6 C-10.04669132 4.96958487 -8.08718472 3.9509107 -6.125 2.9375 C-4.48917969 2.08478516 -4.48917969 2.08478516 -2.8203125 1.21484375 C-1.88960938 0.81394531 -0.95890625 0.41304687 0 0 Z " fill="#ADADAD" transform="translate(297,39)"/>
<path d="M0 0 C1.33333333 0.33333333 2.66666667 0.66666667 4 1 C4.33 0.67 4.66 0.34 5 0 C6.92667507 -0.08748207 8.85651861 -0.10697334 10.78515625 -0.09765625 C12.53989258 -0.09282227 12.53989258 -0.09282227 14.33007812 -0.08789062 C15.56177734 -0.07951172 16.79347656 -0.07113281 18.0625 -0.0625 C19.91584961 -0.05573242 19.91584961 -0.05573242 21.80664062 -0.04882812 C24.87114117 -0.03699608 27.93554721 -0.02051173 31 0 C31.12375 0.639375 31.2475 1.27875 31.375 1.9375 C31.58125 2.618125 31.7875 3.29875 32 4 C32.66 4.33 33.32 4.66 34 5 C34 5.66 34 6.32 34 7 C30.04 7 26.08 7 22 7 C22 7.66 22 8.32 22 9 C21.34 9 20.68 9 20 9 C20 8.34 20 7.68 20 7 C17.36 7 14.72 7 12 7 C12 5.35 12 3.7 12 2 C11.34 2 10.68 2 10 2 C10 3.65 10 5.3 10 7 C8.35 7 6.7 7 5 7 C5 6.01 5 5.02 5 4 C4.67 4.99 4.34 5.98 4 7 C2.35 6.67 0.7 6.34 -1 6 C-1.042721 4.33388095 -1.04063832 2.66617115 -1 1 C-0.67 0.67 -0.34 0.34 0 0 Z M22 2 C22 2.99 22 3.98 22 5 C22.66 5 23.32 5 24 5 C24 4.01 24 3.02 24 2 C23.34 2 22.68 2 22 2 Z " fill="#000000" transform="translate(551,444)"/>
<path d="M0 0 C-0.33 3.63 -0.66 7.26 -1 11 C-7.625 13 -7.625 13 -11 13 C-11.66 13.350625 -12.32 13.70125 -13 14.0625 C-15 15 -15 15 -18 14 C-18.33 12.35 -18.66 10.7 -19 9 C-15.71195019 6.08772731 -13.40114397 4.50298788 -9 4 C-9.33 3.01 -9.66 2.02 -10 1 C-3.375 -1.125 -3.375 -1.125 0 0 Z " fill="#818181" transform="translate(448,40)"/>
<path d="M0 0 C-0.13972568 4.18772701 -0.28787081 8.37511607 -0.4375 12.5625 C-0.47681641 13.74392578 -0.51613281 14.92535156 -0.55664062 16.14257812 C-0.76423764 21.84351159 -1.11158737 27.36849184 -2 33 C-2.47321871 42.65922897 -1.62154665 52.36602691 -1 62 C9.395 60.515 9.395 60.515 20 59 C18 62 18 62 15.93701172 62.43237305 C15.10959473 62.45855713 14.28217773 62.48474121 13.4296875 62.51171875 C12.53378906 62.54716797 11.63789063 62.58261719 10.71484375 62.61914062 C9.30912109 62.65297852 9.30912109 62.65297852 7.875 62.6875 C6.93011719 62.72166016 5.98523438 62.75582031 5.01171875 62.79101562 C2.67459747 62.87364112 0.33785809 62.94273988 -2 63 C-3.73075242 51.37923375 -5.30423037 39.4273347 -3.4921875 27.71875 C-2.84328156 22.81590514 -2.8936162 18.00111547 -2.9375 13.0625 C-2.94201172 12.09248047 -2.94652344 11.12246094 -2.95117188 10.12304688 C-2.9628685 7.7486324 -2.97925914 5.37434979 -3 3 C-4.04800781 3.55880859 -4.04800781 3.55880859 -5.1171875 4.12890625 C-6.02726562 4.60199219 -6.93734375 5.07507813 -7.875 5.5625 C-9.23238281 6.27599609 -9.23238281 6.27599609 -10.6171875 7.00390625 C-11.40351563 7.33261719 -12.18984375 7.66132813 -13 8 C-13.66 7.67 -14.32 7.34 -15 7 C-12.87767021 5.82823482 -10.75242209 4.66245215 -8.625 3.5 C-7.72007812 2.99919922 -7.72007812 2.99919922 -6.796875 2.48828125 C-2.2265625 0 -2.2265625 0 0 0 Z " fill="#B9B9B9" transform="translate(322,157)"/>
<path d="M0 0 C3.63 0 7.26 0 11 0 C9.6328125 6.93359375 9.6328125 6.93359375 9 9 C6.5558206 10.2220897 4.78970128 10.23641068 2.0625 10.3125 C0.74958984 10.36857422 0.74958984 10.36857422 -0.58984375 10.42578125 C-3 10 -3 10 -4.81640625 7.98046875 C-5.20699219 7.32691406 -5.59757812 6.67335938 -6 6 C-5.38125 5.938125 -4.7625 5.87625 -4.125 5.8125 C-3.42375 5.544375 -2.7225 5.27625 -2 5 C-1.34 3.35 -0.68 1.7 0 0 Z " fill="#818181" transform="translate(361,29)"/>
<path d="M0 0 C1.85776765 3.13498292 2.20140476 5.37471432 2 9 C3.32 9.33 4.64 9.66 6 10 C5.96519531 10.75925781 5.93039062 11.51851562 5.89453125 12.30078125 C5.85392578 13.79158203 5.85392578 13.79158203 5.8125 15.3125 C5.77769531 16.29863281 5.74289062 17.28476563 5.70703125 18.30078125 C5.75721892 21.04574389 5.75721892 21.04574389 7.51171875 22.85546875 C8.00285156 23.23316406 8.49398437 23.61085938 9 24 C2.359375 22.140625 2.359375 22.140625 -0.875 20.875 C-4.22645504 19.93659259 -6.89645329 19.90755017 -10.34375 19.99609375 C-15.57648944 20.00378896 -20.78997712 19.45094479 -26 19 C-26.33 19.66 -26.66 20.32 -27 21 C-27 20.01 -27 19.02 -27 18 C-26.34 18 -25.68 18 -25 18 C-25 17.34 -25 16.68 -25 16 C-23.99839844 16.144375 -22.99679687 16.28875 -21.96484375 16.4375 C-20.62243078 16.62525007 -19.27998085 16.81273594 -17.9375 17 C-16.95233398 17.14308594 -16.95233398 17.14308594 -15.94726562 17.2890625 C-11.59387518 17.88953015 -7.38886235 18.04261031 -3 18 C-0.9935269 18.29185063 1.00994193 18.61169599 3 19 C3.33 16.03 3.66 13.06 4 10 C3.195625 10.020625 2.39125 10.04125 1.5625 10.0625 C-1 10 -1 10 -2 9 C-2.04080783 7.00041636 -2.04254356 4.99954746 -2 3 C-2.99 3.66 -3.98 4.32 -5 5 C-8.1875 5.125 -8.1875 5.125 -11 5 C-9.6875 3.5 -9.6875 3.5 -8 2 C-5.66666667 2 -3.33333333 2 -1 2 C-0.67 1.34 -0.34 0.68 0 0 Z " fill="#B6B6B6" transform="translate(411,72)"/>
<path d="M0 0 C1.66630509 0.03471469 3.33414654 0.05205792 5 0 C5 2.33333333 5 4.66666667 5 7 C-0.02439385 8.67479795 -4.90085558 8.23615622 -10 7 C-10 6.34 -10 5.68 -10 5 C-11.32 5 -12.64 5 -14 5 C-14 4.34 -14 3.68 -14 3 C-8.98114342 -1.39149951 -6.07355494 -1.15983698 0 0 Z " fill="#818181" transform="translate(319,54)"/>
<path d="M0 0 C0.99 0 1.98 0 3 0 C3 0.66 3 1.32 3 2 C3.66 2 4.32 2 5 2 C5 2.99 5 3.98 5 5 C2.6875 7 2.6875 7 0 9 C-1.0173873 9.98230498 -2.02596117 10.97469597 -3 12 C-3.33 11.67 -3.66 11.34 -4 11 C-6.33297433 10.95907063 -8.66705225 10.95758277 -11 11 C-11.33 9.35 -11.66 7.7 -12 6 C-9.58555381 4.56921707 -8.28577002 3.98606 -5.4375 4.125 C-4.633125 4.08375 -3.82875 4.0425 -3 4 C-1.36323743 2.0399719 -1.36323743 2.0399719 0 0 Z " fill="#828282" transform="translate(269,54)"/>
<path d="M0 0 C3.0625 0.3125 3.0625 0.3125 6 1 C6.99 0.67 7.98 0.34 9 0 C11.33299825 -0.03954234 13.66708189 -0.04401732 16 0 C15.34 0.66 14.68 1.32 14 2 C16.31 2.66 18.62 3.32 21 4 C21 3.01 21 2.02 21 1 C21.66 1 22.32 1 23 1 C22.6875 2.9375 22.6875 2.9375 22 5 C21.01 5.33 20.02 5.66 19 6 C19.99 7.485 19.99 7.485 21 9 C18.08482708 7.92598892 16.22189824 7.22189824 14 5 C13.608125 5.45375 13.21625 5.9075 12.8125 6.375 C10.69167513 8.27642919 8.66957765 9.06204028 6 10 C7.65 8.35 9.3 6.7 11 5 C8.03 5 5.06 5 2 5 C1.67 4.01 1.34 3.02 1 2 C0.01 2.99 -0.98 3.98 -2 5 C-2.66 4.67 -3.32 4.34 -4 4 C-2.375 1.9375 -2.375 1.9375 0 0 Z " fill="#D7D7D7" transform="translate(337,30)"/>
<path d="M0 0 C-1.01320313 0.23783203 -1.01320313 0.23783203 -2.046875 0.48046875 C-7.5295759 1.9145278 -10.95207475 2.87394389 -14 8 C-13.16855469 7.83242188 -12.33710938 7.66484375 -11.48046875 7.4921875 C-10.39378906 7.28851563 -9.30710937 7.08484375 -8.1875 6.875 C-7.10855469 6.66617188 -6.02960938 6.45734375 -4.91796875 6.2421875 C-2 6 -2 6 1 8 C-3.455 8.495 -3.455 8.495 -8 9 C-8 9.66 -8 10.32 -8 11 C-7.34 11 -6.68 11 -6 11 C-5.67 13.97 -5.34 16.94 -5 20 C-6.5625 18.25 -6.5625 18.25 -8 16 C-7.6875 13.75 -7.6875 13.75 -7 12 C-7.99 11.67 -8.98 11.34 -10 11 C-10 10.34 -10 9.68 -10 9 C-11.98 9.33 -13.96 9.66 -16 10 C-16 8.68 -16 7.36 -16 6 C-17.11375 5.9175 -18.2275 5.835 -19.375 5.75 C-23 5 -23 5 -24.4375 2.9375 C-24.7159375 1.9784375 -24.7159375 1.9784375 -25 1 C-24.01 1.33 -23.02 1.66 -22 2 C-22 2.66 -22 3.32 -22 4 C-18.62535976 4.2503577 -18.62535976 4.2503577 -15 4 C-13.99459471 3.00543466 -12.99497497 2.00499991 -12 1 C-9.84375 0.234375 -9.84375 0.234375 -7.5 -0.25 C-6.7265625 -0.42015625 -5.953125 -0.5903125 -5.15625 -0.765625 C-3 -1 -3 -1 0 0 Z " fill="#CACACA" transform="translate(405,29)"/>
<path d="M0 0 C9.41002278 0.96355353 9.41002278 0.96355353 14 2 C14 3.32 14 4.64 14 6 C14.556875 5.77183594 15.11375 5.54367188 15.6875 5.30859375 C21.33522653 3.18115622 25.08199896 2.81639979 31 4 C31 5.32 31 6.64 31 8 C30.34 7.67 29.68 7.34 29 7 C29.33 6.34 29.66 5.68 30 5 C26.66468965 5.31541164 23.33199282 5.65130308 20 6 C19.278125 6.0721875 18.55625 6.144375 17.8125 6.21875 C16.1982816 6.40707548 14.59616613 6.69435117 13 7 C12.67 7.66 12.34 8.32 12 9 C12 7.68 12 6.36 12 5 C7.545 3.02 7.545 3.02 3 1 C3.33 2.32 3.66 3.64 4 5 C3.01 4.67 2.02 4.34 1 4 C0.3125 1.9375 0.3125 1.9375 0 0 Z " fill="#E5E5E5" transform="translate(424,23)"/>
<path d="M0 0 C3.3 0.99 6.6 1.98 10 3 C8.125 8.75 8.125 8.75 7 11 C6.01 11 5.02 11 4 11 C3.32880451 9.5437455 2.66318193 8.08492133 2 6.625 C1.62875 5.81289063 1.2575 5.00078125 0.875 4.1640625 C0 2 0 2 0 0 Z " fill="#828282" transform="translate(427,24)"/>
<path d="M0 0 C0.66 0 1.32 0 2 0 C2 0.66 2 1.32 2 2 C1.236875 2.20625 0.47375 2.4125 -0.3125 2.625 C-3.82229103 4.42070704 -4.52599781 6.43136312 -6 10 C-6.66 9.67 -7.32 9.34 -8 9 C-8 6.66666667 -8 4.33333333 -8 2 C-13.28 2 -18.56 2 -24 2 C-23.67 1.34 -23.34 0.68 -23 0 C-15.33752506 -1.11120381 -7.63191884 -1.34680921 0 0 Z " fill="#B8B8B8" transform="translate(337,40)"/>
<path d="M0 0 C0.33 0.66 0.66 1.32 1 2 C1.99 2.33 2.98 2.66 4 3 C3.01 3.33 2.02 3.66 1 4 C0.34 3.67 -0.32 3.34 -1 3 C-2.00217064 6.58327753 -2.00217064 6.58327753 -1 10 C-2.95825873 10.02694851 -4.91662226 10.04637218 -6.875 10.0625 C-7.96554687 10.07410156 -9.05609375 10.08570313 -10.1796875 10.09765625 C-13 10 -13 10 -15 9 C-15 9.99 -15 10.98 -15 12 C-16.32 11.67 -17.64 11.34 -19 11 C-17.8125 9.5 -17.8125 9.5 -16 8 C-13.3125 7.8125 -13.3125 7.8125 -11 8 C-10.67 6.68 -10.34 5.36 -10 4 C-10 5.32 -10 6.64 -10 8 C-7.69 7.34 -5.38 6.68 -3 6 C-2.67 4.68 -2.34 3.36 -2 2 C-1.34 2 -0.68 2 0 2 C0 1.34 0 0.68 0 0 Z " fill="#B8B8B8" transform="translate(411,45)"/>
<path d="M0 0 C4.55555556 0.55555556 4.55555556 0.55555556 6 2 C6.1875 4.4375 6.1875 4.4375 6 7 C5.34 7.66 4.68 8.32 4 9 C-0.55555556 8.44444444 -0.55555556 8.44444444 -2 7 C-2.1875 4.5625 -2.1875 4.5625 -2 2 C-1.34 1.34 -0.68 0.68 0 0 Z M2 3 C1.67 3.66 1.34 4.32 1 5 C2.32 5.33 3.64 5.66 5 6 C4.67 5.01 4.34 4.02 4 3 C3.34 3 2.68 3 2 3 Z " fill="#000000" transform="translate(534,442)"/>
<path d="M0 0 C1.1446875 0.2475 1.1446875 0.2475 2.3125 0.5 C5.03392445 1.00631153 6.40067115 0.74266539 9 0 C10 1 10 1 10.0625 3.5625 C10.041875 4.366875 10.02125 5.17125 10 6 C6.01080675 7.1004671 2.98919325 7.1004671 -1 6 C-1.042721 4.33388095 -1.04063832 2.66617115 -1 1 C-0.67 0.67 -0.34 0.34 0 0 Z M1 2 C1 2.99 1 3.98 1 5 C1.99 4.67 2.98 4.34 4 4 C3.01 3.34 2.02 2.68 1 2 Z M6 2 C6 2.99 6 3.98 6 5 C6.99 4.67 7.98 4.34 9 4 C8.67 3.34 8.34 2.68 8 2 C7.34 2 6.68 2 6 2 Z " fill="#000000" transform="translate(587,444)"/>
<path d="M0 0 C2.64 0.33 5.28 0.66 8 1 C7.67 2.65 7.34 4.3 7 6 C5.68 6.33 4.36 6.66 3 7 C2.66781808 10.00259517 2.66781808 10.00259517 4.5 11.6875 C4.995 12.120625 5.49 12.55375 6 13 C5.67 13.99 5.34 14.98 5 16 C4.34 15.01 3.68 14.02 3 13 C-0.08365871 12.7497843 -0.08365871 12.7497843 -3 13 C-3.33 12.34 -3.66 11.68 -4 11 C-3.01 10.67 -2.02 10.34 -1 10 C-0.2884375 8.7315625 -0.2884375 8.7315625 0.4375 7.4375 C0.953125 6.633125 1.46875 5.82875 2 5 C3.32 5 4.64 5 6 5 C4.60804085 2.2160817 2.84424221 2.02101003 0 1 C0 0.67 0 0.34 0 0 Z " fill="#B6B6B6" transform="translate(289,63)"/>
<path d="M0 0 C6.15234375 -0.09765625 6.15234375 -0.09765625 8 0 C9 1 9 1 9.0625 4.0625 C9.041875 5.031875 9.02125 6.00125 9 7 C8.34 7 7.68 7 7 7 C7 5.35 7 3.7 7 2 C6.34 2 5.68 2 5 2 C5 3.65 5 5.3 5 7 C3.35 7 1.7 7 0 7 C0 4.69 0 2.38 0 0 Z " fill="#000000" transform="translate(598,444)"/>
<path d="M0 0 C5.75 1.875 5.75 1.875 8 3 C7.360625 3.350625 6.72125 3.70125 6.0625 4.0625 C3.16530349 6.78410885 3.34550748 9.13031621 3 13 C2.67 13.99 2.34 14.98 2 16 C2.27769908 18.3406065 2.60539977 20.67624308 3 23 C0.65941363 20.87219421 -0.70700306 18.88437779 -2 16 C-1.2884375 15.2265625 -1.2884375 15.2265625 -0.5625 14.4375 C1.43044599 11.32850426 1.59600788 8.63592912 2 5 C2.33 4.34 2.66 3.68 3 3 C2.01 2.67 1.02 2.34 0 2 C0 1.34 0 0.68 0 0 Z " fill="#BEBEBE" transform="translate(427,61)"/>
<path d="M0 0 C2.31 0.33 4.62 0.66 7 1 C7 1.66 7 2.32 7 3 C6.34 3 5.68 3 5 3 C5 3.99 5 4.98 5 6 C-1.93 5.505 -1.93 5.505 -9 5 C-9 4.67 -9 4.34 -9 4 C-4.545 3.505 -4.545 3.505 0 3 C0 2.01 0 1.02 0 0 Z " fill="#8E8E8E" transform="translate(353,28)"/>
<path d="M0 0 C0.66 0 1.32 0 2 0 C1.6875 1.9375 1.6875 1.9375 1 4 C0.01 4.33 -0.98 4.66 -2 5 C-1.01 6.485 -1.01 6.485 0 8 C-2.91517292 6.92598892 -4.77810176 6.22189824 -7 4 C-7.391875 4.45375 -7.78375 4.9075 -8.1875 5.375 C-10.30832487 7.27642919 -12.33042235 8.06204028 -15 9 C-14.175 8.21625 -13.35 7.4325 -12.5 6.625 C-9.77011494 4.36278736 -9.77011494 4.36278736 -10 2 C-6.7 2.33 -3.4 2.66 0 3 C0 2.01 0 1.02 0 0 Z " fill="#B8B8B8" transform="translate(358,31)"/>
<path d="M0 0 C1.093125 0.0825 2.18625 0.165 3.3125 0.25 C3.621875 1.219375 3.93125 2.18875 4.25 3.1875 C5.00773342 6.09065792 5.00773342 6.09065792 6.3125 7.25 C6.35342937 9.58297433 6.35491723 11.91705225 6.3125 14.25 C5.3225 14.25 4.3325 14.25 3.3125 14.25 C3.6425 13.92 3.9725 13.59 4.3125 13.25 C4.81491322 10.9204053 4.81491322 10.9204053 4.3125 8.25 C2.3125 5.25 2.3125 5.25 -0.6875 3.25 C-3.93788489 3.30392193 -3.93788489 3.30392193 -6.6875 4.25 C-4.79150483 0.68106792 -4.16790733 0.28256999 0 0 Z " fill="#BBBBBB" transform="translate(347.6875,55.75)"/>
<path d="M0 0 C0.66 1.32 1.32 2.64 2 4 C5.63 4 9.26 4 13 4 C13 4.99 13 5.98 13 7 C12.67 6.67 12.34 6.34 12 6 C9.76925356 5.92760255 7.55507809 6.00350207 5.32421875 6.0625 C3 6 3 6 0.84765625 5.44140625 C-1.67670172 4.83833553 -2.84153951 5.68950613 -5 7 C-5.33 6.34 -5.66 5.68 -6 5 C-4.6875 3.5 -4.6875 3.5 -3 2 C-2.01 2 -1.02 2 0 2 C0 1.34 0 0.68 0 0 Z " fill="#C0C0C0" transform="translate(312,49)"/>
<path d="M0 0 C0 3.3 0 6.6 0 10 C-0.66 10 -1.32 10 -2 10 C-2.33 7.69 -2.66 5.38 -3 3 C-4.04800781 3.55880859 -4.04800781 3.55880859 -5.1171875 4.12890625 C-6.02726562 4.60199219 -6.93734375 5.07507813 -7.875 5.5625 C-9.23238281 6.27599609 -9.23238281 6.27599609 -10.6171875 7.00390625 C-11.40351563 7.33261719 -12.18984375 7.66132813 -13 8 C-13.66 7.67 -14.32 7.34 -15 7 C-12.87767021 5.82823482 -10.75242209 4.66245215 -8.625 3.5 C-7.72007812 2.99919922 -7.72007812 2.99919922 -6.796875 2.48828125 C-2.2265625 0 -2.2265625 0 0 0 Z " fill="#AEAEAE" transform="translate(322,157)"/>
<path d="M0 0 C1.85776765 3.13498292 2.20140476 5.37471432 2 9 C1.01 8.67 0.02 8.34 -1 8 C-1.33 6.35 -1.66 4.7 -2 3 C-2.99 3.66 -3.98 4.32 -5 5 C-8.1875 5.125 -8.1875 5.125 -11 5 C-9.6875 3.5 -9.6875 3.5 -8 2 C-5.66666667 2 -3.33333333 2 -1 2 C-0.67 1.34 -0.34 0.68 0 0 Z " fill="#AFAFAF" transform="translate(411,72)"/>
<path d="M0 0 C-1.16651426 5.92863717 -2.75519358 11.38798394 -5 17 C-6.28497537 13.14507389 -5.4052209 11.59653164 -4.0625 7.8125 C-3.68222656 6.72582031 -3.30195313 5.63914063 -2.91015625 4.51953125 C-2.60980469 3.68808594 -2.30945313 2.85664063 -2 2 C-2.7425 2.350625 -3.485 2.70125 -4.25 3.0625 C-7.1322726 4.04509293 -8.21176345 4.0326802 -11 3 C-9.54293274 2.49632243 -8.08429904 1.99717444 -6.625 1.5 C-5.81289063 1.2215625 -5.00078125 0.943125 -4.1640625 0.65625 C-2 0 -2 0 0 0 Z " fill="#BABABA" transform="translate(278,141)"/>
<path d="M0 0 C0.99 0.33 1.98 0.66 3 1 C-2.14285714 6.57142857 -2.14285714 6.57142857 -6 7 C-6 6.34 -6 5.68 -6 5 C-6.78375 5.495 -7.5675 5.99 -8.375 6.5 C-11 8 -11 8 -13 8 C-12.67 7.01 -12.34 6.02 -12 5 C-8.82757352 3.68964993 -6.44118336 3 -3 3 C-1.31201173 1.56249809 -1.31201173 1.56249809 0 0 Z " fill="#B2B2B2" transform="translate(283,95)"/>
<path d="M0 0 C0.66 0.33 1.32 0.66 2 1 C1.72327406 5.7043409 -0.29574416 7.53885609 -3.56640625 10.57421875 C-5.21379511 12.21263001 -6.16714942 13.83458848 -7 16 C-7.33 14.02 -7.66 12.04 -8 10 C-7.4225 9.61328125 -6.845 9.2265625 -6.25 8.828125 C-5.5075 8.30734375 -4.765 7.7865625 -4 7.25 C-3.2575 6.73953125 -2.515 6.2290625 -1.75 5.703125 C-1.1725 5.14109375 -0.595 4.5790625 0 4 C0 2.68 0 1.36 0 0 Z " fill="#ACACAC" transform="translate(276,84)"/>
<path d="M0 0 C2.31 0.66 4.62 1.32 7 2 C4.50935112 2.68707555 2.62113708 3 0 3 C-0.33 3.99 -0.66 4.98 -1 6 C-3.64 5.67 -6.28 5.34 -9 5 C-9 5.66 -9 6.32 -9 7 C-9.66 6.67 -10.32 6.34 -11 6 C-10.67 5.01 -10.34 4.02 -10 3 C-8.63875 3.37125 -8.63875 3.37125 -7.25 3.75 C-3.91162152 4.38259327 -3.91162152 4.38259327 -1.625 2.0625 C-1.08875 1.381875 -0.5525 0.70125 0 0 Z " fill="#B5B5B5" transform="translate(362,49)"/>
<path d="M0 0 C0.66 1.32 1.32 2.64 2 4 C-0.66666667 5.33333333 -3.33333333 6.66666667 -6 8 C-6 7.34 -6 6.68 -6 6 C-7.65 5.67 -9.3 5.34 -11 5 C-8.98734473 4.32911491 -6.96610205 3.68350063 -4.9375 3.0625 C-1.92483983 2.20779575 -1.92483983 2.20779575 0 0 Z " fill="#ADADAD" transform="translate(338,31)"/>
<path d="M0 0 C1.32 0.66 2.64 1.32 4 2 C2.68 2 1.36 2 0 2 C0.02320313 2.98742187 0.04640625 3.97484375 0.0703125 4.9921875 C0.09738281 6.91417969 0.09738281 6.91417969 0.125 8.875 C0.14820313 10.15117188 0.17140625 11.42734375 0.1953125 12.7421875 C0 16 0 16 -2 18 C-2 17.34 -2 16.68 -2 16 C-4.31 15.67 -6.62 15.34 -9 15 C-5.98968256 14.06576355 -5.13349732 13.95550089 -2 15 C-2.02320313 14.25234375 -2.04640625 13.5046875 -2.0703125 12.734375 C-2.08835937 11.74953125 -2.10640625 10.7646875 -2.125 9.75 C-2.14820313 8.77546875 -2.17140625 7.8009375 -2.1953125 6.796875 C-1.99862781 3.9803502 -1.44568916 2.39050964 0 0 Z " fill="#BDBDBD" transform="translate(381,113)"/>
<path d="M0 0 C1 3 1 3 1 5 C1.99 5.33 2.98 5.66 4 6 C3.319375 5.95875 2.63875 5.9175 1.9375 5.875 C-1.59924168 6.02549965 -4.63323033 6.94375853 -8 8 C-8 8.99 -8 9.98 -8 11 C-8.66 10.67 -9.32 10.34 -10 10 C-9 7 -9 7 -7.0625 5.9375 C-6.381875 5.628125 -5.70125 5.31875 -5 5 C-4.34 4.34 -3.68 3.68 -3 3 C-2 2 -1 1 0 0 Z " fill="#BFBFBF" transform="translate(269,62)"/>
<path d="M0 0 C0.66 0 1.32 0 2 0 C2.66 0.99 3.32 1.98 4 3 C4.33 2.01 4.66 1.02 5 0 C5.66 0 6.32 0 7 0 C6.38461538 5.53846154 6.38461538 5.53846154 4.4375 7.875 C3.7259375 8.431875 3.7259375 8.431875 3 9 C0 3.375 0 3.375 0 0 Z " fill="#000000" transform="translate(543,442)"/>
<path d="M0 0 C9.41002278 0.96355353 9.41002278 0.96355353 14 2 C13.67 3.32 13.34 4.64 13 6 C13 5.34 13 4.68 13 4 C12.278125 3.87625 11.55625 3.7525 10.8125 3.625 C8.04278106 3.0095069 5.6029646 2.11555626 3 1 C3.33 2.32 3.66 3.64 4 5 C3.01 4.67 2.02 4.34 1 4 C0.3125 1.9375 0.3125 1.9375 0 0 Z " fill="#EEEEEE" transform="translate(424,23)"/>
<path d="M0 0 C1.65 0 3.3 0 5 0 C5 1.65 5 3.3 5 5 C3.68 5.33 2.36 5.66 1 6 C0.67 4.02 0.34 2.04 0 0 Z " fill="#888888" transform="translate(384,35)"/>
<path d="M0 0 C0.99 0.33 1.98 0.66 3 1 C2.01 1.495 2.01 1.495 1 2 C1 4.31 1 6.62 1 9 C-0.98 9 -2.96 9 -5 9 C-4.01 8.67 -3.02 8.34 -2 8 C-1.855625 6.865625 -1.71125 5.73125 -1.5625 4.5625 C-1 1 -1 1 0 0 Z " fill="#E9E9E9" transform="translate(253,139)"/>
<path d="M0 0 C0.33 0 0.66 0 1 0 C1 1.65 1 3.3 1 5 C-0.98 5.66 -2.96 6.32 -5 7 C-5.33 6.34 -5.66 5.68 -6 5 C-4.6875 3.5 -4.6875 3.5 -3 2 C-2.01 2 -1.02 2 0 2 C0 1.34 0 0.68 0 0 Z " fill="#ADADAD" transform="translate(312,49)"/>
<path d="M0 0 C-1 2 -2 4 -3 6 C-4.37562854 4.71034824 -5.70766393 3.37310707 -7 2 C-7 1.34 -7 0.68 -7 0 C-3.98968256 -0.93423645 -3.13349732 -1.04449911 0 0 Z " fill="#B5B5B5" transform="translate(432,47)"/>
<path d="M0 0 C0.66 0 1.32 0 2 0 C1.01 2.97 0.02 5.94 -1 9 C-1.92131287 5.3147485 -2.15237495 4.34188735 -1 1 C-0.67 0.67 -0.34 0.34 0 0 Z " fill="#ADADAD" transform="translate(414,63)"/>
<path d="M0 0 C0.99 0.33 1.98 0.66 3 1 C2.34 1 1.68 1 1 1 C1 1.66 1 2.32 1 3 C2.32 3 3.64 3 5 3 C4.67 3.66 4.34 4.32 4 5 C1.69 5 -0.62 5 -3 5 C-2.01 3.35 -1.02 1.7 0 0 Z " fill="#BFBFBF" transform="translate(304,56)"/>
<path d="M0 0 C2.49361571 1.20381448 4.68143083 2.45428722 7 4 C4.03 3.67 1.06 3.34 -2 3 C-1.34 2.01 -0.68 1.02 0 0 Z " fill="#BCBCBC" transform="translate(375,40)"/>
</svg>
